<?xml version="1.0" encoding="UTF-8"?>
<!DOCTYPE svg PUBLIC "-//W3C//DTD SVG 1.1//EN" "http://www.w3.org/Graphics/SVG/1.1/DTD/svg11.dtd">
<!-- Creator: CorelDRAW 2019 (64-Bit) -->
<svg xmlns="http://www.w3.org/2000/svg" xml:space="preserve" width="14.4748in" height="11.9556in" version="1.1" style="shape-rendering:geometricPrecision; text-rendering:geometricPrecision; image-rendering:optimizeQuality; fill-rule:evenodd; clip-rule:evenodd"
viewBox="0 0 14248.68 11768.8"
 xmlns:xlink="http://www.w3.org/1999/xlink"
 xmlns:xodm="http://www.corel.com/coreldraw/odm/2003">
 <defs>
  <style type="text/css">
   <![CDATA[
    .str0 {stroke:#FEFEFE;stroke-width:6.84;stroke-miterlimit:2.61313;stroke-dasharray:6.836377 34.181885}
    .fil16 {fill:#96989A}
    .fil11 {fill:black}
    .fil7 {fill:#424143}
    .fil15 {fill:#5921AE}
    .fil12 {fill:#5A27AF}
    .fil13 {fill:#6414DB}
    .fil9 {fill:#6C26DF}
    .fil14 {fill:#98C431}
    .fil19 {fill:#A2C5EA}
    .fil8 {fill:#C3C3C4}
    .fil1 {fill:#E3E3E3}
    .fil22 {fill:#E7EDF1}
    .fil4 {fill:#ECECEC}
    .fil5 {fill:#ECECEC}
    .fil6 {fill:#F1F1F1}
    .fil0 {fill:#F1F1F1}
    .fil2 {fill:#F4F4F4}
    .fil21 {fill:#F5FCFC}
    .fil10 {fill:#F7FFFF}
    .fil17 {fill:#FAB81B}
    .fil3 {fill:#FAFAFA}
    .fil18 {fill:#FF5454}
    .fil20 {fill:#FEFEFE;fill-rule:nonzero}
   ]]>
  </style>
 </defs>
 <g id="Layer_x0020_1">
  <metadata id="CorelCorpID_0Corel-Layer"/>
  <g id="_1807355048000">
   <rect class="fil0" x="-0" y="10654.96" width="14248.69" height="580.31" rx="422.63" ry="290.15"/>
   <path class="fil1" d="M2019.7 10748.09l-106.03 6.02 116.61 -124.81 -10.58 118.79zm-348.33 3.98l392.86 -398.46c-6.59,197.09 -12.66,207.01 -99.58,293.65 -109.89,109.54 -73.49,116.99 -293.28,104.81zm-78.54 1.59l-18.39 -60.62c-3.58,-26.9 -5.14,-54.02 -6.24,-81.11l374.94 -373c40.4,-40.39 73.61,-101.28 145.9,-102.94 13.91,174.64 -58.55,202.83 -200.87,346.36 -50.92,51.35 -240.25,261.22 -295.34,271.3zm-17.23 -175.65l-23.77 -63.24c-16.33,-113.88 1.98,-91.31 183.92,-273.25 109.19,-109.19 60.29,-105.53 265.59,-105.53 -68.13,107.79 -355,340.76 -425.73,442.02zm-37.56 -191.77l-18.07 -143.82c95.07,-103.75 82.61,-112.19 267.25,-105.48 -27.75,39.81 -210.1,223.67 -249.18,249.3zm698.32 -444.89l0 71.89 -264.85 1.56c-29.2,9.6 -8.13,-8.32 -24.2,17.49 44.94,30.24 219.76,12.88 287.05,12.88l2 58.73 -859.05 0c-0.67,-84.62 -35.45,-62.12 171.3,-62.02 77.87,0.04 167.18,13.92 193.36,-17.88 -20.57,-18.76 -5.61,-13.98 -49.68,-13.98l-314.98 0c-0.59,-77.39 -18.86,-64.78 47.65,-70.44l811.4 1.77zm-188.4 -33.28c24.18,-37.86 34.59,-40.62 63,-75.87 295.65,-367 401.62,-1287.06 437.92,-1721.71 32.26,206.47 62.99,249.52 86.26,526.39 16.11,191.59 29.02,411.18 -19.27,595.26 -43.53,165.95 -123.29,297.8 -207.66,410.82 -28.36,38 -41.15,52.23 -68.71,85.84 -13.74,16.76 -19.65,28.28 -33.98,43.98 -13.54,14.83 -25.09,22.37 -39.53,37.17 -84.26,86.33 -46.72,107.21 -218.03,98.12zm-922.9 -1522.21c58.86,31.31 170.02,171.46 219.79,236.58 61.28,80.17 127.53,185.35 175.53,288.23 139.73,299.45 182.76,554.55 164.12,896.12 -3.86,70.64 2.52,105.86 -36.43,102.82 -33.17,-14.84 -7.99,12.76 -24.75,-30.22 -3.46,-8.87 -8.53,-42.71 -10.91,-54.22 -31.33,-151.99 -174.58,-496.88 -238.35,-624.54 -56.84,-113.78 -113.82,-216.93 -169.89,-326.6 -49.89,-97.57 -122.12,-226.82 -181.82,-313.17 33.54,-45.47 78.13,-104.22 102.7,-175zm470.16 1523.1l-124.09 -0.22c-21.72,-45.88 -167.55,-216.01 -204.61,-246.31 -85.44,-69.84 -102.48,-115.78 -231.13,-222.46l-227.97 -225.06c-62.13,-74.68 -138.17,-177.83 -144,-309.92l39.39 -23.57c3.33,-0.96 8.43,-5.51 9.99,-2.82l30.94 -17.82 -92.17 -53.38 12.34 -188.76 191.23 -15.78c-62.68,-68.96 -175.99,-46.56 -150.69,-144.47 31.65,-0.07 151.65,60.65 196.29,77.72 113.25,43.32 98.48,41.52 156.55,141.51 176.52,303.99 494.31,894.37 537.95,1231.33zm847.6 -1468.79c-4.28,-50.75 -30.28,-65.85 -24.06,-103.76l88.72 -330.96c36.2,379.4 -126.53,1168.78 -271.16,1543.39 -89.81,232.62 -143.36,230.05 -231.89,361.11l-56.48 -1.88c26.59,-34.47 60.04,-65.23 88.15,-106.51 296.04,-434.69 18.54,-894.19 164.57,-1080.29 23.18,9.78 124.63,69.64 78.42,-3.86 -48.19,-76.65 -47.77,-49.21 -16.75,-125.65l108.34 27.01c-5.39,-49.43 -25.72,-64.53 -41.18,-111.64 17.7,-34.17 29.59,-42.86 43.01,-79.76l70.31 12.8zm-1724.57 -21.45c-14.5,-143.87 12.77,-127.88 -43.86,-269.07 42.27,24.07 114.87,128.97 150.04,175.5 44.7,59.13 93.38,126.36 127.79,198.47l-233.98 -104.91zm120.74 -130.42c-29.01,-38.85 -145.64,-183.2 -180.69,-207.01 122.76,29.88 372,200.66 437.54,271.11 -3.2,73.15 -58.08,132.93 -91.54,173.18l-165.31 -237.29zm717 -259.05c43.17,40.86 91.41,135 123.66,191.96 196.1,346.36 341.4,882.44 245.29,1280.27 -29.75,123.14 -68.79,232.52 -128.33,337.35 -22.75,40.05 -30.99,72.63 -88.57,67.19 18.59,-172.98 20.36,-343.29 -4.64,-514.76 -46.63,-319.84 -79.8,-87.65 -12.72,-444.68 100.05,-532.5 -115.27,-664.93 -134.69,-917.34zm24.49 -39.73c49.14,20.26 66.64,41.75 103.09,72.88 47.33,40.43 50.46,48.05 45.52,131.99l49.3 -26.8c65.57,85.49 67.38,75.33 76.03,209.63 41.76,-20.54 39.32,-36.55 67.08,21.2 16.9,35.15 29.47,66.12 44.83,100.01 84.3,186.09 161.37,443.33 180.18,649.3 16.01,175.21 -0.39,340.36 -61.56,492.47 -26.43,65.74 -65.88,132.68 -101.16,175.29 -57.61,69.56 -65.46,100.58 -189.15,92.23 76.1,-148.52 133.58,-244.37 169.68,-443.3 36.08,-198.77 23.75,-392.15 -13.09,-586.7 -31.66,-167.14 -87.69,-335.8 -151.29,-478.21 -33.52,-75.06 -66.93,-137.48 -102.13,-207.17 -23.69,-46.91 -88.59,-165.08 -117.33,-202.83zm898.51 -46.09c-15.82,76.17 -25.78,157.17 -44.34,233.68 -16.11,66.41 -69.64,153.42 -37.7,206.75 -2.11,1.66 -5.7,2.85 -7.18,3.64l-45.35 31.5c-78.77,94.47 -35.1,119.92 -24.2,153.99l-60.71 -16.77c-36,39.49 -63.62,61.64 -44.5,124.74 -67.44,-12.72 -60.7,88.32 -91.7,148.91 -23.37,-36.04 -96.22,-285.16 -182.78,-459.64 -27.04,-54.52 -25.4,-37.7 -38.78,-51.04 -19.27,-19.21 -11.56,-2.33 -22.03,-33.7 -49.95,-149.61 -79.39,-111.39 -121.61,-185.03 -52.68,-91.88 -167.69,-136.75 -200.14,-171.75 -49.13,20.43 -45.64,20.58 -41.22,81.03 26.65,87.2 41.5,156.37 73.77,245.27 29.32,80.77 60.02,155.81 77.28,243.56 26.01,132.31 17.84,463.6 -41.82,569.97 -24.29,-35.72 -59.35,-133.63 -82.21,-180.3 -121.4,-247.84 -264.01,-423.21 -465.49,-595.77 -236.08,-202.19 -428.9,-234.92 -502.29,-279.68 -96.6,20.08 3.58,79.16 21.97,96.62 149.92,142.41 58.99,332.89 67.5,419.31l73.74 48.8 -100.05 14.8c-45.97,236.74 -22.36,212.82 33.88,266.91l-43.8 18.92c-7.22,173.36 133.63,357.77 243.98,458.93l458.6 447.83c35.02,37.04 67.62,79.76 97.27,124.63l-83.51 1.22 1.11 224.49 122.49 1.02c18.12,49.85 35.39,211.97 30.31,266.23 28.98,37.79 40.52,311.18 49.76,381.04l501.85 0.84 40.65 -335.01 34.8 -311.96 139.99 -3.18c1.49,-262.81 11.35,-204.11 -41.73,-232.57 75.24,-57.19 243.77,-279.07 296.34,-366.7 205.79,-343.05 177.49,-742.85 118.02,-1135.03 -14.04,-92.59 -32.19,-187.12 -53.54,-278.03l-50.97 -202.01c-14.69,-53.59 -4.36,-44.48 -46.56,-55.74l-9.08 79.26z"/>
   <path class="fil2" d="M1417.25 4178.95l0 388.18 1457.83 -0.24 1.05 -320.22 -51.01 11 0 -141.99c-65.29,35.98 -157.66,108.3 -220.6,130.91l-8.59 -80.24c-136.89,0 -150.89,-36.07 -150.89,85.33 -58.94,1.45 -45.48,-9.27 -45.89,55.26l-43.26 0c-8.35,-34.31 -1.24,-7.36 -16.42,-29.31 -2.47,-3.57 -2.65,3.83 -16.73,-19.95 0,-77.37 0,-154.73 0,-232.09 0,-87.76 17.44,-192.01 -22.56,-200.33l-34.79 0.41 -46.42 0.98c0,277.74 26.82,238.83 -69.68,238.83l0 -170.83c-132.97,0 -61.91,28.14 -153.04,72.35 0,78.47 -0.01,156.94 0,235.42 0.03,195.07 21.31,175.79 -44.87,178.46l-6.07 -73.33 -127.21 -0.61 -5.41 -407.23c-199.5,0 -152.73,178.5 -163.57,235.03l-94.94 1.37 -30.25 74.46c-27.24,-46.36 -38.88,-28.79 -106.65,-31.61z"/>
   <path class="fil3" d="M1417.25 4178.95c67.77,2.82 79.41,-14.75 106.65,31.61l30.25 -74.46 94.94 -1.37c10.84,-56.53 -35.93,-235.03 163.57,-235.03l5.41 407.23 127.21 0.61 6.07 73.33c66.18,-2.67 44.9,16.61 44.87,-178.46 -0.01,-78.47 0,-156.95 0,-235.42 91.14,-44.22 20.07,-72.35 153.04,-72.35l0 170.83c96.5,0 69.68,38.91 69.68,-238.83l46.42 -0.98c-31.68,-35.84 -23.25,-18.35 -25.24,-75.62l1.32 -226.98 -79.08 -6.5 -7.99 -102.26c3.49,22.2 -32.62,106.31 -44.81,136.66 -65,161.81 -23.95,131.35 -237.31,131.39l-1.38 -176.86 -70.95 0.01 -3.25 122.65 -73.8 1.73 -2.95 -191.51 -121.75 1.28c-3.5,41.43 0.73,81.86 -0.22,122.85 -2.35,101.68 -0.47,44.56 -45.61,76.27 0,29.71 1.08,59.73 1.15,89.11 0.19,78.31 -9.25,64.53 -26.31,76.57l-16.87 -114.72 -85.46 -2.98 1.74 -400.48c-17.41,21.28 -7.65,-18.99 -14.15,42.71l4.8 849.97z"/>
   <path class="fil4" d="M1214.46 3048.5l1862.09 -1.46 1.13 1759.92 -1861.51 1.58 -1.71 -1760.04zm-46.89 1805.28l1955.63 0.4 0.17 -1852.2 -1950.9 0.03 -4.9 1851.78z"/>
   <path class="fil3" d="M2300.16 3825.25c40,8.32 22.56,112.57 22.56,200.33 0,77.36 0,154.73 0,232.09 14.08,23.77 14.26,16.37 16.73,19.95 15.18,21.95 8.07,-5 16.42,29.31l43.26 0c0.42,-64.53 -13.04,-53.81 45.89,-55.26 0,-121.4 14,-85.33 150.89,-85.33l8.59 80.24c62.94,-22.61 155.3,-94.93 220.6,-130.91l0 141.99 51.01 -11c8.64,-143.95 4.42,-326.87 4.26,-475.29l-3.19 -461.68c-8.53,-30.6 5.41,-3.45 -11.6,-23.73 0.94,96.82 14.4,561.89 -0.1,619.22l-42.18 6.44c0,98.15 19.75,77.36 -78.89,77.36l-4.3 -231.92 -236.49 -1.81 -8 -206.72 -182.33 0c-25.27,63.96 -0.09,197.6 -13.14,276.7z"/>
   <path class="fil4" d="M1426.6 3286.27l1439 -0.29c17.01,20.28 3.08,-6.87 11.6,23.73l3.19 461.68c0.16,148.42 4.38,331.34 -4.26,475.29l-1.05 320.22 -1457.83 0.24 0 -388.18 -4.8 -849.97c6.5,-61.7 -3.26,-21.43 14.15,-42.71zm-57.62 1325.68l41.46 3.25 1469.94 -0.54 42.81 -0.97 -0 -1372.7 -1554.2 -0.67 0 1371.64z"/>
   <path class="fil5" d="M3577.42 1473.99l354.27 0 0.59 464.96 -723.11 0 0.04 46.35 213.4 0c9.25,94.83 0.43,192.36 1.26,287.32 0.56,64.45 -7.78,52.73 46.94,56.46l0.26 -339.11 874.53 -4.61 0 343.72c63.74,-3.32 46.7,25.52 46.36,-146.4 -0.13,-65.7 -1.93,-131.8 1.55,-197.38l300.06 0.91c89.65,1.71 70.46,-1.03 80.78,-24.57 -8.1,-16.53 3.98,-24.73 -80.78,-23.57 -143.16,1.95 -641.46,8.3 -714.38,-3.21l-0.62 -456.77c70,-10.79 392.63,-4.55 504.35,-4.08 161.59,0.68 132.53,15.77 135.33,-43.45l-942.46 -0.28c-72.5,-1.35 -97.68,-20.76 -98.37,43.71z"/>
   <path class="fil6" d="M1401.34 6512.96c0.74,61.64 52.77,38.34 120.96,37.93 60.16,-0.36 120.43,-0.03 180.6,-0.03l0 394.49 -580.04 -1.89c-55.66,4.15 -40.65,-9.87 -42.56,47.47l183.21 0.55 2.76 295.12 46.13 0 0.53 -295.68 744.77 0.3 2.56 103.74c73.9,-4.53 39.17,-21.31 49.24,-104.03l321.9 0c-2.41,-61.8 27.88,-46.3 -135.37,-45.6 -114.13,0.49 -481.68,7.29 -547.93,-4.66l0.39 -387.26 250.69 -2.88c-5.07,-67.82 -33.23,-44.87 -111.92,-43.95 -103.94,1.22 -436.66,-11.39 -485.9,6.38z"/>
   <path class="fil5" d="M8511.82 2586.41l291.03 1.73c-13.19,119.14 -115.62,239.12 -189.62,285.24 -93.34,58.19 -266.91,116.1 -389.56,56.31 -143.95,-24.49 -293.67,-189.23 -316.27,-342.45l604.42 -0.83zm203.36 -222.31l471.19 0.74 -0 175.14 -471.18 2.22 -1189.83 0.34 0 -178.9 1189.83 0.47zm-479.32 -718.09c176.9,-67.84 434.57,40.61 583.33,159.28 58.95,47.03 121.93,125.14 166.31,210.01 33.1,63.31 92.73,210.88 73.51,297.84 -8.77,0.64 -1310.47,18.75 -1383.05,1.92 -26.69,-6.19 -6.78,2.29 -26.11,-10.36 -8.45,-313.06 297.15,-645.45 586.02,-658.7zm65.29 -59.94c-213.8,27.71 -341.28,85.64 -482.96,226.81 -136.36,135.86 -186.49,254.34 -219.16,499.14l-116.49 5.92 -0.02 269.39c478.67,0 332.03,-39.34 428.62,148.37 78.75,153.02 245.41,259.48 437.03,260.82 280.49,1.96 447.95,-176.66 508.15,-409.19l376.15 0 0 -270.25 -117.82 0c-8.19,-56.21 -9.7,-96.76 -23.83,-153.53 -33.97,-136.48 -99.3,-248.91 -185.41,-344.66 -95.78,-106.49 -278.16,-215.34 -489.21,-231.24 -16.06,-74.8 -34.79,-113.56 -108.19,-190.04l-6.86 188.45z"/>
   <path class="fil5" d="M8407 1451.15c6.97,-43.89 7.92,-210.19 3.34,-256.7 -5.32,-54.13 -70.44,-116.41 -98.9,-161.73 -16.51,45.56 -16.24,206.41 -7.76,259.66 9.32,58.54 94.75,127.52 103.32,158.76z"/>
   <path class="fil5" d="M8407 1086.45c5.52,-34.74 8.39,-187.66 0.28,-218.55 -6.93,-26.4 -32.7,-53.84 -47.1,-73 -10.9,-14.5 -13,-18.71 -23.22,-31.68l-33.74 -35.23c-1.23,55.32 -10.51,181.16 7.55,226.3 16.48,41.18 90.1,104.18 96.24,132.16z"/>
   <path class="fil5" d="M8409.17 780.44c12.87,-235.96 1.96,-191.58 -98.32,-335.15 -16.58,52.12 -20.24,163.45 0.64,210.58 14.22,32.1 75.58,94.76 97.69,124.57z"/>
   <path class="fil5" d="M8410.61 495.5c0,-57.92 9.89,-135.8 -14.64,-178.33 -15.66,-27.16 -73.24,-101.51 -89.14,-114.3 -9.11,56.04 -14.27,137.45 11.35,181.18 14,23.89 68.54,92.98 92.43,111.45z"/>
   <path class="fil5" d="M8407 257.55c9.61,-60.48 10.35,-112.34 -18.74,-153.5l-84.08 -104.05c-4.5,82.72 -12.92,104.18 28.26,160.62 12.11,16.59 72.83,90.59 74.56,96.93z"/>
   <path class="fil7" d="M9170.84 7999.04c99.01,-16.66 257.89,81.13 321.53,126.79 424.46,304.49 655.8,990.29 768.4,1497.01 30.51,137.31 128.01,669.61 98.88,792.02l21.05 356.78 -1242.8 -3.76 -0.24 -2781.04c54.55,1.48 19.73,2.14 33.17,12.2zm-1347.56 2415.01c-30.03,-119.61 72.08,-671.72 102.35,-809.57 129.97,-591.93 431.07,-1485.52 1099.66,-1617.12 29.73,19.84 8.89,-4.45 18.09,31.56l0.06 2751.44 -1242.33 -2.95 7.55 -274.21c2.35,-76.71 10.59,-66.08 11.06,-70.85 0.45,-4.55 2.07,-5.69 3.55,-8.31zm3311.26 25.52l29.6 -156.61c31.58,16.99 144.14,139.88 151.64,154.1 6.27,30.02 -31.11,64.82 -2.56,144.91 17.88,50.15 46.87,73.05 66.68,110.59 -108.32,0.73 -216.71,-38.07 -264.22,34.8 -36.29,55.67 22.37,43.13 -56.89,45.32 -30.43,-55.15 39.74,-260.56 75.74,-333.11zm-5358.68 -15.05l7.32 341.8 -128.77 -1.33c-20.18,-39.96 8.81,-28.36 -61.97,-121.28 -32.24,-42.33 -57.94,-60.17 -107.48,-80.36 -95.09,-38.76 -202.73,-63.71 -243.73,-133.69 -27.66,-24.61 -33.37,-37.45 -37,-87.1l52.3 28.25 321.52 -483.56c18.52,-28.36 31.38,-48.41 52.13,-80.72 7.53,-11.72 17.78,-28.99 25.68,-40.42 1.47,-2.13 12.99,-17.67 14.69,-19.76 8.7,-10.64 9.82,-11.22 17.91,-18.92 14.13,113.32 38.59,229.85 53.3,347.54 14.63,116.98 22,232.2 34.09,349.56zm653.04 6.42c66.72,83.52 135.42,113.36 231.23,184.34 65.74,48.7 160.96,122.12 251.71,153.31l-1027.61 -2.33 -15.69 -321.95c17.79,-91.13 -69.37,-655.8 -94.41,-767.36 -19.22,-85.6 5.01,-96.51 44.6,-157.03l259.33 -393.39c34.33,71.56 70.53,237.32 99.37,324.83 78.13,237.03 6.82,167.35 7.37,357.29 0.2,69.23 41.78,112.34 73.03,148.35 254.65,293.38 113.87,201.48 171.08,473.94zm4850.12 -1427.45c18.3,24.62 17.32,16.07 21.48,56.14 -55.42,57.4 -99.76,20.59 -78.72,-51.85l57.24 -4.29zm-6616.34 1422.61c27.73,23.66 259.14,303.9 272.94,337.69l-1729.27 -2.9 13.29 -335.41c28.17,-539.24 137.91,-1058.71 317.17,-1496.71 156.7,-382.87 447.24,-872.46 875.01,-938.46 369.83,-57.05 671.96,265.56 829.24,518.67 40.05,64.45 74.14,79.46 44.75,156.81 -114.21,300.63 -187.84,533.51 -278.64,849.02 -62.35,216.65 -26.68,148.42 -194.57,258.66 -132.45,86.97 -208.78,132.29 -105.89,222.57l13.38 12c-74.2,25.16 -134.79,97.48 -149.97,186.72 -32.1,-29.79 -30.69,-31.24 -73.99,11.61 8.66,30.3 -4,2.86 18.16,34.79 30,43.22 122.07,136.88 148.41,184.95zm679.3 -1929.29c-77.49,-186.59 -310.55,-394.47 -479.38,-511.98l729.42 -0.39c-22.92,66.7 -92.1,177.69 -126.76,252.82l-123.28 259.55zm377.8 -723.63l-64.19 115.2 -828.82 -8.25 893.01 -106.95zm1292.08 -1685.35c-24.52,38.46 -50.89,43.13 -105.94,65.38 -128.97,52.13 -254.32,80.62 -395.91,102 -508.61,76.81 -1291.16,-7.74 -1751.46,-147.65 20.32,-29.96 30.02,-31.41 56.58,-56.48l394.65 -372.21 256.53 -235.72c29.53,-26.5 56.3,-45.96 81.98,-72.96 202.16,264.08 800.26,434.73 1099.91,493.38 452.65,88.59 318.25,80.76 595.78,-68.71 46.66,-25.13 217.16,-123.17 272.58,-112.62 58.77,11.18 208.85,112.96 249.56,146.87 -62.64,-8.34 -181.04,-45.43 -233.17,-45.96 -78.36,-0.78 -432.35,296.55 -521.09,304.68zm-1843.43 -449.69l-314.24 297.3c-23.37,21.44 -41.48,35.33 -65.82,56.29 -38.58,33.22 -83.56,77.79 -117.72,112.63 -183.87,-51.16 -353.03,-205.36 -419.08,-363.84 -90.4,-216.89 -34.73,-453.36 46.74,-647.98 89.53,-213.88 350.43,-592.84 593.51,-588.15 62.92,1.21 110.02,21.4 155.37,42.81l122.5 64.57c104.2,31.19 232.08,151.09 268.48,251.48 30.09,82.97 23.77,142.82 34,232.42 8.15,71.35 40.12,165.22 40.49,214.68 -53.06,79.78 -117.52,111.21 -173.31,171.39 -52.47,56.6 -109.04,104.25 -170.92,156.39zm-866.75 304.13c43.04,28.9 65.99,58.39 116.74,95.7 39.59,29.11 82.74,56.23 130.12,79.68 73.7,36.47 72.52,39.03 156.89,39.34 35.65,0.14 108.36,27.17 152.49,37.94 236.11,57.63 467.75,74.46 704.88,123.09l-24.89 71.5c-142.2,290.64 182.33,405.88 -120.17,541.1 -181.11,80.96 -409.15,98.55 -585.3,177.16 -173.57,77.46 -335.36,215.4 -588.87,165.31 -109.25,-21.59 -190.47,-75.81 -287.5,-98.93 -64.02,-15.25 -174.09,23.39 -243.31,31.74 -57.09,6.89 -53.88,-13.25 -58.82,-20.23 -41.81,-67.09 53.07,-885.43 71.81,-1018.39 45.6,-323.36 109.85,-621.73 197.34,-919.26 80.51,-273.75 203.9,-568.98 339.04,-777.32 123.83,-190.92 345.08,-469.3 567.54,-543.61 37.52,158.95 331.01,390.42 533.06,440.86 82.63,30.19 204.98,45.7 302.52,46.52 173.85,1.46 182.55,4.52 254.92,-76.51 54.5,152.24 95.18,433.62 116.32,614.08 29.37,250.83 10.65,422.91 -49.81,645.9 -104.28,-32.95 -348.43,-190.37 -399.03,-276.19 -78.37,-132.9 -33.87,-375.98 -123.36,-539.62 -41.7,-76.25 -146.65,-167.83 -231.55,-205.41 -145.2,-100.95 -366.78,-183.05 -540.01,-73.37 -253.17,160.31 -500.65,559.59 -538.78,885.49 -35.02,299.27 52.86,379.07 147.71,553.4zm1144.68 -2736.6c31.54,-55.83 15.19,-117.71 85.04,-151.34 227.72,-109.64 165.39,356.54 168.11,520.95 3.16,191.01 66.95,408.94 121.73,596 17.56,59.95 58.11,118.04 21.06,166.85 -79.73,44.89 -341.88,13.24 -428.43,-17.51 -201.16,-38.76 -460.47,-242.47 -522.33,-392.55l447.78 -723.21c50.92,15.84 53.35,12.21 107.04,0.81zm205.09 -315.67c41.24,-22.25 519.06,-100.86 585.03,-98.06l181.47 593.12c-51.5,-5.14 -131.19,-27.1 -162.09,15.02 18.68,51.62 22.44,21.04 72.36,43.29l-20.97 65.56c-287.4,-96.4 -262.67,-62.05 -360.43,-281.91 -77.04,-173.25 -185.17,-240.55 -295.39,-337.02zm653.97 -173.15l-665.8 110.28c-59.43,5.75 -126,19.48 -185.11,29.31 -58.36,9.71 -130.83,15.67 -183.76,38.9 -38.06,2.93 -10.23,-17.91 -34.81,16.77 7.83,30.16 -9.84,17.31 49.24,38.26 2.03,0.72 7.3,5.52 8.79,2.93 1.5,-2.59 6.17,1.36 8.79,3.02 -34.25,108.75 -13.29,103.32 -15.27,200.51 -0.85,41.86 -225.78,385.01 -257.15,435.59 -65.42,105.5 -120.1,228.35 -198.8,264.62 -291.93,134.55 -531.96,405.31 -685.86,696.21 -87.16,164.74 -228.6,455.04 -269.38,657.59 -76.77,141.32 -189.86,816.95 -216.77,1010.06 -13.73,98.57 -107.47,913.26 -59.33,1000.39 16.51,29.86 79.78,52.63 79.89,52.43 1.2,-2.25 5.18,2.29 7.49,3.89 -0.38,155.47 42.86,284.69 112.63,384.26 117.83,168.15 145.01,128.84 258.1,225.69l-535.64 0.37 -424.01 -2667.28 -41.39 0.03 -58.04 2.03 415.9 2612.73 27.14 148.95 688.16 1.15c-30.5,29.87 -89.7,60.86 -129.14,92.38 -592.6,473.55 -857.55,1656.54 -877.71,2347.55l-11.01 335.44 -1111.2 -1.39 -501.85 -0.84c-181.17,8.19 -380.9,0.56 -564.26,0.47 -95.78,-0.05 -191.58,0.2 -287.36,-0.01 -113.64,-0.24 -205.56,-18.82 -167.98,114.89 82.04,43.34 538.66,21.46 676.38,21.45l4907.05 6.91c934.67,2.18 1873.07,-7.18 2807.19,4.6l2088.81 4.03c180.95,0 544.55,-19.64 704.28,4.96 -114.32,74.08 -237.84,134.57 -237.46,317.92 52.93,247.85 247.29,141.11 340.79,276.59 37.02,103.27 -191.48,141.46 -106.05,237.36 93.17,104.59 400.85,-207.46 162.43,-383.1 -128.12,-94.38 -216.23,-51.64 -239.26,-124.31 -67.63,-47.91 64.36,-152.36 95.44,-170.33 70.19,-40.59 153.52,-54.34 220.91,-88.78 124.59,-63.67 35.75,-69.96 230.41,-69.1l606.94 -0.24c82.43,-12.69 108.99,-133.72 -32.14,-137.34 -199.73,-5.13 -408.67,-0.43 -609.39,-0.43 27.28,-124.31 61.64,-198.73 37.88,-346.76 -52.2,-183.18 -140.79,-271.19 -259.79,-362.28 -135.08,-103.39 -176.19,-211.18 -281.14,-349.2 -164.59,-216.44 -200.11,-70.47 -71.12,-405.81 27.73,-72.1 63.47,-173.74 21.14,-251.19l-100.29 -207.35c-35.99,18 -37.29,38.13 -73.17,75.15l-68.69 -98.96 -22.56 119.09c-141.16,11.06 -60.9,9.44 -164.26,44.52 -34.05,11.55 -11.87,-6.29 -38.5,16.27 -9.78,8.28 -23.61,37.26 -28.42,48.85 -63.72,153.42 31.26,150.19 15.44,256.67 -57.73,9.62 -67.64,-12.79 -95.67,-54.21 -23.09,-34.14 -46,-52.71 -71.13,-83.62 -117.98,-145.13 -121.59,-239.83 -201.45,-417.18 -72.81,-161.7 11.7,-48.92 -78.06,-237.96l-40.34 -41.9 -114.52 24.42c-40.89,117.82 72.06,178.72 147.75,462.27 49.06,183.82 88.54,301.22 157.95,461.05 88.45,203.67 82.35,351.89 145.37,473.14 28.29,54.43 39.44,41.32 36.7,119.06l-38.54 420.12 -6.18 244.78c-104.09,19.16 -83.32,51.31 -111.08,89.09l-317.07 -3.41 -10.57 -330.54c-18.2,-126.07 -22.84,-294.97 -42.53,-437.6 -92.15,-667.34 -349.59,-1613.17 -927.98,-1988.3 -119.16,-77.28 -190.53,-90.02 -356.63,-122.88l-5.2 -1396.87 1006.32 -2.45 -4.51 -93.19 -320.78 3.58 -1889.58 -6.34 -485.19 -0.89 -742.57 7.84 -0.53 91.16 2352.12 2.02c-16.59,92.41 -7.77,1139.83 -4.74,1314.45 2.3,132.84 16.96,47.54 -200.25,127.1 -504.15,184.65 -798.92,875.1 -939.2,1359.59 -141.95,490.28 -126.2,657.96 -185.96,1120.89l-12.33 353 -226.48 -1.39c49.49,-85.6 128.05,-211.51 -50.93,-235.04 -80.76,-10.62 -106.45,0.23 -182.71,-28.32 -49.25,-18.44 -92.34,-40.75 -122.12,-80.47 -34.13,-9.02 -20.43,-4.11 -51.1,-33.79 -162.99,-157.75 -114.95,-199.91 -114.95,-449.26l0 -1945.14c0,-236.84 23.14,-748.67 -37.69,-945.56 -32.02,-103.64 -44.6,-142.64 -150.56,-169.68 -285.3,-72.81 -845.49,-125.5 -1161.79,-133.32 -79.46,-220.75 -44.52,-222.53 13.28,-422.31 96.84,-1.77 219.96,11.62 320.46,16.83 114.43,5.93 218.45,-0.4 332,-4.24 465.18,-15.73 729.69,-134.25 1080.57,-388.17 127.52,-92.29 229.91,80.59 370.35,40.34 17.65,-81.01 -23.84,-70.01 -60.04,-117.12 142.7,11.74 228.18,87.6 224.14,-30.03 68.46,5.58 100.58,-31.71 54.28,-78.93 -22.97,-23.43 -271.95,-181.86 -354.52,-189.45 -78.02,18.15 -278.57,121.09 -358.31,162.17 -258.93,133.42 -157.72,138.83 -372.38,105.79 -177.49,-27.33 -707.72,-143.6 -814.36,-222.47 69.89,-319.21 84.88,-472.82 33.03,-820.48 -114.77,-769.6 -142.54,-377.33 -210.32,-691.86 102.19,60.77 111.65,69.65 263.43,81.63 -2.98,2.16 -15.28,13.67 -11.51,30.41l93.55 6.38c-10.75,15.39 -4.29,7.08 -17.58,20.74l-38.66 37.05 146.07 -34.62c0.28,0.74 2.16,6.69 2.37,5.3 0.23,-1.5 1.48,3.95 2.59,5.72 51.49,-66.22 196.48,-187.19 217.9,-344.82 26.77,-196.92 -34.49,-317.78 -163.57,-381.12l29.61 -83.98c107.95,-38.17 138.11,84.8 46.77,-215.63 -22.56,-74.21 -73.24,-204.98 -81.75,-274.72 37.76,30.21 54.38,-8.39 107.4,-13.49 67.54,-6.49 77.72,30.68 99.35,-23.18 -50.81,-74.91 -183.71,-9.45 -217.56,18.49l-49.34 -164.85 566.77 -94.15c65.99,-10.92 144.28,-4.02 134.51,-61.3 -18.11,-18.45 4.13,-12.45 -35.57,-14.6l-655.58 110.1z"/>
   <path class="fil8" d="M5537.91 6389.54c-168.73,38.89 -193.25,73.08 -403.39,60.84 -218.14,-12.7 -478.46,-127.74 -629.78,-266.48 -90.2,-82.71 -125.28,-123 -203.07,-241.62 -94.85,-174.34 -182.73,-254.13 -147.71,-553.4 38.13,-325.9 285.61,-725.18 538.78,-885.49 173.22,-109.69 394.81,-27.58 540.01,73.37 18.47,-68.22 98.64,-155.51 129.99,-208.77 -202.05,-50.45 -495.54,-281.91 -533.06,-440.86 -222.46,74.31 -443.71,352.69 -567.54,543.61 -135.13,208.34 -258.53,503.57 -339.04,777.32 -87.49,297.54 -151.75,595.9 -197.34,919.26 -18.75,132.96 -113.62,951.3 -71.81,1018.39 4.95,6.98 1.74,27.12 58.82,20.23 69.22,-8.36 179.29,-46.99 243.3,-31.74 97.03,23.11 178.25,77.34 287.5,98.93 253.51,50.08 415.29,-87.85 588.87,-165.31 176.15,-78.61 404.19,-96.21 585.3,-177.16 302.5,-135.23 -22.04,-250.46 120.17,-541.1z"/>
   <path class="fil9" d="M8616.83 6176.64c34.01,-37.73 146.5,-32.53 200.38,-16.44l7.94 64.21 35.46 0 5.01 -64.57c49.5,-13.54 147.82,-13.53 194.73,0.13l7.71 64.18 35.69 0.26 4.91 -64.57c57.09,-15.97 168.67,-20.63 203.36,16.8 25.64,27.24 13.85,-34.76 22.68,33.48l234.86 0 262.48 -1207.31 -986.38 0c-32.89,205.22 -146.5,651.33 -195.45,894.09 -28.14,139.53 -68.54,218.64 -46.88,319.67l13.52 -39.93z"/>
   <path class="fil8" d="M5168.42 5638.14c-116.48,-34.89 -247.23,-290.8 -222.82,-515.84 26.19,-241.45 141.44,-358.27 224.07,-510.53l-122.49 -64.57c-45.35,-21.41 -92.45,-41.6 -155.37,-42.81 -243.08,-4.69 -503.98,374.27 -593.51,588.15 -81.47,194.63 -137.14,431.09 -46.74,647.98 66.05,158.47 235.2,312.67 419.08,363.84 34.17,-34.84 79.14,-79.41 117.72,-112.63 24.34,-20.96 42.45,-34.86 65.82,-56.29l314.24 -297.3z"/>
   <path class="fil8" d="M7011.85 6087.83c-368.45,6.79 -641.1,-27 -980.52,-115.38 -134.33,-34.98 -638.48,-191.52 -778.86,-259.43l-42.71 -34.14 -394.65 372.21c-26.56,25.07 -36.26,26.52 -56.58,56.48 460.3,139.91 1242.85,224.46 1751.46,147.65 141.59,-21.38 266.94,-49.88 395.91,-102 55.05,-22.25 81.43,-26.92 105.94,-65.38z"/>
   <path class="fil10" d="M5362.74 4367.98c-31.35,53.26 -111.52,140.55 -129.99,208.77 84.89,37.58 189.85,129.15 231.55,205.41 89.49,163.64 44.99,406.72 123.36,539.62 50.61,85.82 294.75,243.25 399.03,276.19 60.46,-222.99 79.18,-395.08 49.81,-645.9 -21.13,-180.46 -61.81,-461.84 -116.32,-614.08 -72.37,81.03 -81.07,77.98 -254.92,76.51 -97.54,-0.82 -219.9,-16.33 -302.52,-46.52z"/>
   <path class="fil10" d="M5209.77 5678.87l42.71 34.14c140.38,67.91 644.53,224.45 778.86,259.43 339.42,88.38 612.07,122.17 980.52,115.38 88.74,-8.13 442.73,-305.46 521.09,-304.68 52.13,0.52 170.53,37.61 233.17,45.96 -40.71,-33.91 -190.79,-135.69 -249.56,-146.87 -55.42,-10.55 -225.92,87.49 -272.58,112.62 -277.53,149.47 -143.13,157.3 -595.78,68.71 -299.65,-58.65 -897.75,-229.29 -1099.91,-493.38 -25.68,27 -52.45,46.47 -81.98,72.96l-256.53 235.72z"/>
   <path class="fil11" d="M9310.39 6224.52c-46.39,31.81 -159.3,32.21 -206.63,-0.11l-35.69 -0.26c-47.17,32.5 -159.48,32.45 -207.46,0.26l-35.46 0c-47.62,31.95 -160.26,32.24 -206.76,0.24l-36.94 0.38c-27.38,18.39 -59.87,22.86 -109.04,22.83 -17.31,-0.01 -45.32,1.1 -60.95,-3.89l-39.29 -30.93c-10.35,7.44 3.99,20.88 -30.64,3.58 -47.4,43.34 -161.43,36.98 -187.86,20.33l-24.49 -24.68c-12.11,9.23 3.49,20.25 -30.62,5.37 -31.32,25.58 -36.6,28.16 -92.91,28.57 -37.91,61.99 -68.14,44.55 -80.64,148.03l1889.57 6.34c16.57,-126.33 53.08,-265.29 78.99,-387.3l200.08 -938.27c14.55,-64.34 43.15,-157.63 -39.35,-158.99l-146.32 6.3c77.07,31.16 -1.77,235.77 -18.66,312.21 -61.79,279.76 -186.26,760.05 -221.67,992.32l-357.27 -2.34z"/>
   <path class="fil8" d="M5413.86 4320.62c-38.12,-204.63 -23.42,-329.77 28.16,-527.11 24.54,-93.92 111.48,-375.33 155.83,-435.27 -50.37,-45.36 -125.62,6.67 -151.5,-152.57 -53.68,11.39 -56.12,15.03 -107.04,-0.81l-447.78 723.21c61.86,150.08 321.17,353.79 522.33,392.55z"/>
   <path class="fil10" d="M5168.42 5638.14c61.88,-52.13 118.45,-99.79 170.92,-156.39 55.78,-60.18 120.25,-91.61 173.31,-171.39 -0.37,-49.47 -32.34,-143.34 -40.49,-214.68 -10.23,-89.61 -3.91,-149.45 -34,-232.42 -36.4,-100.39 -164.28,-220.3 -268.49,-251.48 -82.63,152.25 -197.88,269.08 -224.07,510.53 -24.41,225.04 106.34,480.95 222.82,515.84z"/>
   <path class="fil12" d="M8618.01 5564.5l-133.01 588.58 90.27 2.94 6.18 69.01 36.94 -0.38 -1.57 -48.01 -13.52 39.93c-21.66,-101.03 18.74,-180.13 46.88,-319.67 48.96,-242.77 162.57,-688.87 195.45,-894.09l986.38 0 -262.48 1207.31 -234.86 0c-8.83,-68.23 2.96,-6.24 -22.68,-33.48l-1.63 47.88 357.27 2.34c35.41,-232.27 159.89,-712.56 221.67,-992.32 16.88,-76.44 95.73,-281.05 18.66,-312.21l-893.8 -20.46c-279.82,-0.04 -242.46,-29.97 -298.32,220.45 -31.86,142.79 -73.42,297.83 -97.85,442.18z"/>
   <path class="fil10" d="M5446.34 3205.67c25.88,159.23 101.12,107.2 151.5,152.57 -44.35,59.93 -131.29,341.35 -155.83,435.27 -51.57,197.34 -66.27,322.48 -28.16,527.11 86.55,30.76 348.7,62.4 428.43,17.51 37.05,-48.8 -3.5,-106.89 -21.06,-166.84 -54.78,-187.07 -118.57,-404.99 -121.73,-596 -2.72,-164.41 59.61,-630.59 -168.11,-520.95 -69.85,33.64 -53.5,95.52 -85.04,151.34z"/>
   <path class="fil13" d="M5700.84 2275.16l41.16 6.98c-83.83,137.98 -107.45,357.25 -102.39,544.98l665.8 -110.28c-12.88,-151.96 -75.71,-312.14 -159.53,-395.65 -47.51,-47.34 -92,-90 -191.36,-85.34 -56.5,2.65 -220.97,14.61 -253.67,39.31z"/>
   <path class="fil10" d="M6168.88 3177.27c-31.68,-35.86 -55.4,-150.22 21.87,-118.68 24.18,9.87 87.22,118.97 -21.87,118.68zm-163.08 -131.89c-16.91,-47.97 47.85,-75.3 89.44,-89.84 50.26,-17.57 108.73,-38.87 120.45,22.18 -34.69,20.27 -74,13.51 -117.75,35.14 -21.45,10.61 -36.26,26.03 -46.78,32.05 -20.03,11.46 11.8,4.81 -21.33,8.22 -49.2,5.07 -4.46,2.72 -24.04,-7.75zm-354.37 -155.39c110.22,96.47 218.35,163.76 295.39,337.02 97.76,219.86 73.02,185.5 360.43,281.91l20.97 -65.56c-49.93,-22.25 -53.69,8.33 -72.36,-43.29 30.9,-42.12 110.6,-20.16 162.09,-15.02l-181.47 -593.12c-65.97,-2.81 -543.79,75.81 -585.03,98.06z"/>
   <path class="fil14" d="M7551.24 4791.16c-340.32,111.33 -170.6,585.59 150.19,488.02 115.63,-35.17 214.21,-168.86 165.73,-325.31 -36.48,-117.72 -165.82,-211.82 -315.92,-162.71z"/>
   <path class="fil15" d="M5270.74 2895.34c52.94,-23.23 125.4,-29.19 183.76,-38.9 59.11,-9.84 125.68,-23.56 185.11,-29.31 -5.05,-187.73 18.56,-407 102.39,-544.98l-41.16 -6.98c-56.56,-7.31 -173.84,6.07 -225.71,26.45 -56.53,22.21 -103.95,79.41 -131.34,133.8 -66.21,131.45 -72.33,287.28 -73.06,459.92z"/>
   <path class="fil8" d="M5537.91 6389.54l24.89 -71.5c-237.13,-48.63 -468.77,-65.46 -704.88,-123.09 -44.13,-10.77 -116.84,-37.81 -152.49,-37.94 -84.37,-0.31 -83.2,-2.87 -156.89,-39.34 -47.38,-23.45 -90.53,-50.57 -130.12,-79.68 -50.75,-37.31 -73.7,-66.81 -116.74,-95.7 77.79,118.62 112.87,158.91 203.07,241.62 151.33,138.75 411.64,253.79 629.78,266.48 210.14,12.23 234.66,-21.95 403.39,-60.84z"/>
   <path class="fil16" d="M7439.82 6393.36l485.2 0.89c12.5,-103.48 42.73,-86.04 80.64,-148.03 -64.56,2.61 -77.08,8.13 -119.68,-26.73 -79.62,22.76 -205.69,-6.09 -296.59,8.76 -85.29,13.94 -133.51,77.43 -149.56,165.11z"/>
   <path class="fil17" d="M8335.65 4470.11c-196.84,58.4 -100.63,317.79 78.11,262.67 154.97,-47.79 89.3,-312.34 -78.11,-262.67z"/>
   <path class="fil18" d="M7583.45 4149.42c-196.81,56.06 -101.86,318.51 78.35,262.47 146.22,-45.47 96.48,-312.26 -78.35,-262.47z"/>
   <polygon class="fil10" points="4826.76,7880.13 5655.58,7888.38 5719.77,7773.18 "/>
   <path class="fil19" d="M8197.64 5109.18c-134,70.35 -30.28,244.22 90.88,183.53 110.14,-55.17 33.17,-248.65 -90.88,-183.53z"/>
   <path class="fil11" d="M7885.97 6219.49c42.61,34.86 55.12,29.33 119.68,26.73 56.31,-0.41 61.59,-2.99 92.91,-28.57l-7.75 -58.47c-49.57,-13.34 -147.51,-13.74 -194.64,1.05l-10.21 59.27z"/>
   <path class="fil11" d="M8129.18 6212.27l24.49 24.68c26.43,16.64 140.46,23 187.86,-20.33l-7.68 -57.39c-50.2,-13.66 -146.96,-14.02 -194.73,0.95l-9.94 52.09z"/>
   <path class="fil11" d="M9103.76 6224.41c47.33,32.32 160.24,31.91 206.63,0.11l1.63 -47.88c-34.69,-37.43 -146.27,-32.77 -203.36,-16.8l-4.91 64.57z"/>
   <path class="fil11" d="M8616.83 6176.64l1.57 48.01c46.5,32 159.14,31.71 206.76,-0.24l-7.94 -64.21c-53.88,-16.09 -166.38,-21.29 -200.38,16.44z"/>
   <path class="fil11" d="M8860.61 6224.41c47.98,32.19 160.29,32.24 207.46,-0.26l-7.71 -64.18c-46.91,-13.67 -145.23,-13.67 -194.73,-0.13l-5.01 64.57z"/>
   <path class="fil11" d="M8372.17 6213.04l39.29 30.93c15.63,4.99 43.65,3.88 60.95,3.89 49.17,0.03 81.66,-4.45 109.04,-22.83l-6.18 -69.01 -90.27 -2.94 -103.2 2.95 -9.64 57.02z"/>
   <path class="fil7" d="M6005.81 3045.39c19.58,10.47 -25.16,12.82 24.04,7.75 33.13,-3.42 1.29,3.24 21.33,-8.22 10.51,-6.01 25.32,-21.44 46.78,-32.05 43.75,-21.63 83.06,-14.87 117.75,-35.14 -11.72,-61.04 -70.2,-39.74 -120.45,-22.18 -41.59,14.54 -106.35,41.86 -89.44,89.84z"/>
   <path class="fil7" d="M6168.88 3177.27c109.08,0.3 46.04,-108.8 21.87,-118.68 -77.27,-31.55 -53.55,82.82 -21.87,118.68z"/>
   <path class="fil7" d="M6477.4 3138.25c27.35,-47.15 30.34,-109.55 -43.53,-110.54 -26.92,52.34 -23.97,106.26 43.53,110.54z"/>
   <path class="fil20 str0" d="M4089.43 7413.42c-1.36,-2.85 -2.77,-5.65 -4.12,-8.51 -10.37,-22.32 -19.71,-46.87 -25.5,-70.86l0.06 0.27 -0.12 -0.54 0.02 0.08 -0.01 -0.03 0.03 0.13 -44.13 9.88 0.08 0.36 -0.08 -0.37c1.63,7.98 4.45,16.76 6.89,24.52 7.15,22.35 15.91,44.14 26.36,65.16l0.03 0.07 40.49 -20.14zm2565.83 2594.49c-2.67,-30.03 -5.45,-60.06 -8.19,-90.08l-45.04 4.09c2.74,30.02 5.51,60.04 8.19,90.07l45.04 -4.08zm-12.27 -135.12l-8.17 -90.08 -45.04 4.09 8.17 90.08 45.04 -4.09zm-12.25 -135.11l-8.15 -90.08 -45.04 4.07 8.15 90.08 45.04 -4.08zm-12.22 -135.11l-8.13 -90.08 -45.04 4.06 8.13 90.08 45.04 -4.07zm-12.19 -135.12l-8.12 -90.08 -45.04 4.06 8.12 90.08 45.04 -4.06zm-12.17 -135.12l-8.09 -90.07 -45.04 4.04 8.09 90.09 45.04 -4.06zm-12.13 -135.12l-8.06 -90.08 -45.04 4.03 8.06 90.09 45.04 -4.04zm-12.08 -135.12l-8.03 -90.08 -45.05 4.01 8.03 90.09 45.04 -4.02zm-12.03 -135.12c-2.64,-29.72 -4.57,-60.57 -7.98,-90.08l-45.05 3.98c3.41,29.52 5.34,60.38 7.98,90.11l45.05 -4zm-11.95 -135.12l-7.9 -90.09 -45.05 3.94 7.91 90.11 45.04 -3.96zm-11.82 -135.12l-7.76 -90.08 -45.06 3.85 7.77 90.14 45.05 -3.91zm-11.58 -135.11c-2.5,-29.98 -5.01,-59.96 -7.31,-89.96l-45.09 3.4c2.24,30.12 4.82,60.24 7.34,90.34l45.06 -3.78zm-9.89 -134.31c-1.21,-30.17 -2.53,-60.34 -3.95,-90.5l-45.17 2.1c1.41,30.06 2.73,60.15 3.93,90.22l45.19 -1.83zm-6.08 -135.7c-1.41,-30.14 -2.95,-60.29 -4.55,-90.43l-45.16 2.38c1.61,30.07 3.14,60.15 4.55,90.23l45.17 -2.18zm-6.98 -135.63c-1.64,-30.14 -3.38,-60.27 -5.15,-90.4l-45.14 2.68c1.78,30.06 3.5,60.12 5.14,90.19l45.15 -2.47zm-7.89 -135.6c-1.82,-30.13 -3.78,-60.28 -5.85,-90.39l-45.12 3.07c2.09,30.02 4.02,60.09 5.84,90.12l45.13 -2.81zm-8.99 -135.57c-2.11,-30.12 -4.31,-60.29 -6.78,-90.39l-45.08 3.6c2.37,29.98 4.65,59.99 6.75,90l45.11 -3.21zm-10.47 -135.57c-2.54,-30.13 -5.19,-60.27 -8.16,-90.36l-45.01 4.37c2.88,29.92 5.58,59.85 8.1,89.8l45.06 -3.81zm-12.73 -135.55c-3.3,-32.15 -6.26,-63.07 -16.81,-93.89l-42.72 14.82c8.98,21.54 12.15,60.27 14.57,83.82l44.97 -4.76zm-37.56 -139.33c-17.8,-29.59 -41.27,-53.08 -70.64,-71.2l-23.39 38.7c23.19,14.33 41.37,32.69 55.43,56.05l38.61 -23.55zm-115.17 -92.78c-30.25,-11.25 -61.83,-17.36 -93.9,-20.42l-4.06 45.04c28.17,2.73 55.78,7.94 82.37,17.84l15.59 -42.45zm-140.99 -22.74c-31.01,-0.17 -62.07,1.71 -92.88,5.19l5.08 44.94c28.85,-3.38 58.57,-5.08 87.62,-4.91l0.19 -45.22zm-138.6 11.22c-30.13,4.57 -59.88,10.26 -89.82,15.87l8.36 44.44c29.4,-5.57 58.7,-11.13 88.3,-15.62l-6.84 -44.7zm-133.39 23.2c-29.77,4.25 -59.62,8.12 -89.43,12.11l5.94 44.83c29.94,-4 59.92,-7.89 89.81,-12.17l-6.32 -44.78zm-134.24 18.02c-29.6,3.78 -60.26,7.17 -89.65,11.7l5.81 44.85c29.42,-4.53 60.09,-7.92 89.72,-11.7l-5.88 -44.84zm-134.48 17.49c-29.89,3.86 -59.8,7.63 -89.69,11.51l5.74 44.86c29.9,-3.88 59.83,-7.66 89.73,-11.52l-5.78 -44.86zm-134.53 17.23l-89.71 11.37 5.66 44.87 89.75 -11.37 -5.7 -44.86zm-134.56 17.01c-29.9,3.74 -59.81,7.52 -89.72,11.22l5.58 44.88c29.92,-3.79 59.85,-7.48 89.77,-11.23l-5.63 -44.87zm-134.58 16.79l-89.74 11.07 5.5 44.89 89.79 -11.08 -5.55 -44.88zm-134.61 16.56l-89.76 10.89 5.42 44.9 89.81 -10.9 -5.47 -44.89zm-134.63 16.29l-89.77 10.68 5.29 44.91c29.95,-3.53 59.91,-7.11 89.85,-10.69l-5.38 -44.9zm-134.67 15.95c-29.93,3.5 -59.86,6.98 -89.79,10.4l5.15 44.93 89.9 -10.42 -5.26 -44.92zm-134.69 15.51c-29.93,3.38 -59.89,6.58 -89.8,10l4.9 44.96c30,-3.24 59.99,-6.63 89.98,-10.02l-5.07 -44.94zm-134.71 14.86c-29.92,3.19 -59.84,6.3 -89.78,9.32l4.45 45.01c26.69,-4.71 62.27,-6.39 90.12,-9.36l-4.79 -44.97zm-134.7 13.71c-29.88,2.79 -59.69,5.4 -89.61,7.7l3.24 45.1c30.24,-2.19 60.43,-4.96 90.62,-7.78l-4.25 -45.02zm-133.92 10.3c-28.89,1.06 -51.88,-1.11 -78.75,-12.41l-17.88 41.53c32.78,14.02 62.88,17.37 98.22,16.07l-1.59 -45.19zm-113.26 -32.29c-139.1,-102.86 -96.56,-15.15 -27.05,36.24l27.05 -36.24z"/>
   <path class="fil5" d="M12139.12 7635.16l-378.95 0.6 -1.1 42.88 794.62 4.72 0 464.17 -339.05 0.22 -3.67 40.8c64.84,13.26 529.7,4.34 669.5,5.81 50.42,0.53 60.1,10.93 76.49,-21.56 -16.03,-45.85 -16.27,-26.85 -165.77,-26.76 -61.85,0.04 -123.71,0 -185.56,0l-3.9 -462.86 643.27 0.72c48.79,0.61 59.05,10.21 81.34,-19.49 -14.7,-50.92 -86.18,-29.26 -218.53,-29.26 0,-66.06 11.23,-300.18 -7.16,-343.67l-33.13 -2.03c-24.16,52.81 -7.74,271.11 -7.74,345.71l-871.79 -0.31 1.02 -269.8c0.44,-44.66 11.77,-75.48 -26.54,-75.26 -40.97,0.23 -23.44,64.34 -23.34,153.59 0.07,63.93 0,127.85 0,191.78z"/>
   <path class="fil4" d="M12406.44 4489.36l266.08 0 0.03 137.03 -266.34 0 0.23 -137.03zm-1901.1 0l253.83 0 0.02 137.03 -253.91 0 0.06 -137.03zm-177.71 -208.56l2534.57 4.51 0.53 171.55 -2537.43 -1.28 2.33 -174.78zm1957.25 -207.19l389.9 0 0.02 178.05 -390.25 0 0.33 -178.05zm-120.43 1.91l89.17 2.33 1.38 169.98 -99.58 2.7 9.03 -175.01zm-344.66 19.57l305.32 0.55 -2.86 151.38 -305.73 -2.47 3.27 -149.47zm-331.06 -102.25l288.55 -0.75 0.44 210.35 -2.65 44.94 -46.94 0.35 -188.04 1.38 -50.95 -8.03 -0.4 -248.24zm-817.83 -830.08l781.61 -0.33 -0.68 1073.48 -740.56 0.82 -40.37 -4.91 -0 -1069.06zm1148.89 -438.1l305.87 0.56 0.17 1338.32 -309.71 0.15 3.67 -1339.02zm350.42 586.48l626.06 3.15 -3.01 729.48 -630.2 -3.15 7.15 -729.48zm-543.1 -209.99l149.24 0 -0.04 644.24 -149.33 0 0.13 -644.24zm657.76 -5.93l389.9 0 -0.33 186.07 -389.9 0 0.33 -186.07zm-796.16 -232.82l288.57 -1.18 0 208.81c-55.52,0 -136.24,-7.15 -177.44,11.31 -9.65,105 -11.68,590.53 1.6,683.78 40.96,20.08 126.23,10.86 175.84,10.86l0 184.41 -288.54 -2.74 -0.03 -1095.25zm1.4 -257.46c62.17,-24.11 212.3,-11.13 286.91,-8.96l-1.54 235.37 -286.55 -4.48 1.18 -221.93zm327.98 -70.58c56.13,-13.59 252.21,-15.49 306.71,2.11l1.03 156.63 -309.92 0.15 2.18 -158.89zm1012.41 744.7l-124.95 -2.03 -1.39 -212.28 -448.72 0 -4.89 213.4 -86.09 0.91c-19.74,-65.02 -7.41,-307.29 -7.41,-391.82 0,-467.2 67.34,-393.74 -340.43,-387.73 -25.66,13.43 -14.8,8.77 -32.96,44.16l-307.18 21.02c-43.7,77.53 -19.65,443.3 -19.65,565.37l-811.77 0 -5.46 1111.83c-85.35,26.5 -243.67,-5.27 -341.06,11.87l-1.76 230.15 177.11 7.6 -0.08 164.84 317.33 0 0.1 -164.74 1582.88 -2.29 0.01 161.73 330.75 5.75 0 -163.58 185.07 -4.36 0.33 -239.2 -185.44 -1.58 1.23 -170.05 121.67 -2.24 2.77 -796.74z"/>
   <path class="fil4" d="M10796.65 3281.95l489.57 -1.22 40.2 7.34 0.13 823.25 -39.82 3.45 -490.13 0 0.05 -832.81zm-30.14 821l0.63 43.5 589.54 -0.62 1 -888.12 -591.16 -6.14 -0 851.38z"/>
   <path class="fil4" d="M12391.93 3420.3l147.28 -0 0.37 530.04 -150.61 0 2.97 -530.03zm-34.69 561.7l214.63 0 -0.62 -593.18 -209.37 0.01 -4.64 593.17z"/>
   <path class="fil4" d="M11053.74 3430.29l-0.75 107.36 -139.37 41.51 -1.36 -105.89 141.48 -42.98zm29.12 64.8c20.51,-37.98 87.86,-49.57 128.22,-55.97 -30.05,91.3 -22.47,37.95 10.27,103.51l-138.2 40.25 -0.28 -87.79zm174.14 -102.48l-158.83 49.71 -22.91 -50.56 -190.34 67.25 -0.15 152.11c47.73,4.17 109.44,-29.4 158.14,-41.34l21.94 51.01 207.42 -71.97 -55.47 -52.01 40.2 -104.21z"/>
   <path class="fil9" d="M10278.54 7873.32c-330.51,97.15 -182.46,584.98 144.58,492.31 110.9,-31.42 218.46,-159.96 174.1,-317.24 -33.74,-119.64 -158.73,-222.09 -318.68,-175.07z"/>
   <path class="fil11" d="M13125.5 10776.08c-180.66,0 -155.17,134.07 -33.88,137.72 108.25,3.26 223.63,-0.33 332.86,0.09 163.51,0.62 138.01,-128.65 33.62,-136.68 -96.46,-7.42 -231.97,-1.13 -332.6,-1.13z"/>
   <path class="fil19" d="M10596.04 7142.41c-171.39,67.7 -56.78,305.12 98.31,234.98 135.27,-61.18 62.09,-298.34 -98.31,-234.98z"/>
   <polygon class="fil11" points="10948.22,6528.78 11244.72,6528.14 11244.46,6363.29 10948.64,6360.41 "/>
   <polygon class="fil11" points="10363.03,6528.44 10658.97,6528.17 10658.59,6363.4 10361.17,6360.75 "/>
   <path class="fil21" d="M11134.54 10439.57l181.24 -2.51c-7.5,-14.22 -120.06,-137.12 -151.64,-154.1l-29.6 156.61z"/>
   <path class="fil22" d="M11221.77 9007.78c-21.04,72.45 23.31,109.25 78.72,51.86 -4.16,-40.08 -3.18,-31.52 -21.48,-56.15l-57.24 4.29z"/>
  </g>
 </g>
</svg>
