<svg id="Layer_1" enable-background="new 0 0 64 64" height="512" viewBox="0 0 64 64" width="512" xmlns="http://www.w3.org/2000/svg"><g><g><path d="m62 48h-56v-32c0-2.209 1.791-4 4-4h48c2.209 0 4 1.791 4 4z" fill="#353744"/></g><g><path d="m62 48h-56v2c0 2.209 1.791 4 4 4h48c2.209 0 4-1.791 4-4z" fill="#808080"/></g><g><path d="m58 48h-52v-32c0-2.209 1.791-4 4-4h44c2.209 0 4 1.791 4 4z" fill="#55525b"/></g><g><path d="m58 48h-52v2c0 2.209 1.791 4 4 4h44c2.209 0 4-1.791 4-4z" fill="#dbdee3"/></g><g><path d="m52.5 16h-41c-.828 0-1.5.672-1.5 1.5v25c0 .828.672 1.5 1.5 1.5h41c.828 0 1.5-.672 1.5-1.5v-25c0-.828-.672-1.5-1.5-1.5z" fill="#fbbe18"/></g><g><path d="m16 24h22c1.105 0 2-.895 2-2 0-1.105-.895-2-2-2h-22c-1.105 0-2 .895-2 2 0 1.105.895 2 2 2z" fill="#f68820"/></g><g><path d="m16 32h22c1.105 0 2-.895 2-2 0-1.105-.895-2-2-2h-22c-1.105 0-2 .895-2 2 0 1.105.895 2 2 2z" fill="#f68820"/></g><g><path d="m16 40h22c1.105 0 2-.895 2-2 0-1.105-.895-2-2-2h-22c-1.105 0-2 .895-2 2 0 1.105.895 2 2 2z" fill="#f68820"/></g><g><path d="m37.5 54h4v4h-4z" fill="#808080" transform="matrix(-1 0 0 -1 79 112)"/></g><g><path d="m28 54h9.5v4h-9.5z" fill="#b3b4b6"/></g><g><path d="m45.5 58h-25c-2.209 0-4 1.791-4 4h33c0-2.209-1.791-4-4-4z" fill="#dbdee3"/></g><g><path d="m45.5 58h-4c-2.209 0-4 1.791-4 4h12c0-2.209-1.791-4-4-4z" fill="#808080"/></g><g><path d="m17 2h-3c-6.627 0-12 5.373-12 12s5.373 12 12 12h3c6.627 0 12-5.373 12-12s-5.373-12-12-12z" fill="#5c76b2"/></g><g><circle cx="14" cy="14" fill="#6fa4d8" r="12"/></g><g><circle cx="14" cy="14" fill="#55525b" r="10"/></g><g><path d="m14 14.5c-.276 0-.5-.224-.5-.5v-8c0-.276.224-.5.5-.5s.5.224.5.5v8c0 .276-.224.5-.5.5z" fill="#6fa4d8"/></g><g><path d="m9.758 18.743c-.128 0-.256-.049-.354-.146-.195-.195-.195-.512 0-.707l4.242-4.243c.195-.195.512-.195.707 0s.195.512 0 .707l-4.242 4.243c-.097.097-.225.146-.353.146z" fill="#6fa4d8"/></g><g><circle cx="14" cy="14" fill="#f68820" r="2"/></g><g><circle cx="14" cy="14" fill="#dbdee3" r="1"/></g><g><path d="m7 14.5h-1c-.276 0-.5-.224-.5-.5s.224-.5.5-.5h1c.276 0 .5.224.5.5s-.224.5-.5.5z" fill="#f68820"/></g><g><path d="m14 22.5c-.276 0-.5-.224-.5-.5v-1c0-.276.224-.5.5-.5s.5.224.5.5v1c0 .276-.224.5-.5.5z" fill="#f68820"/></g><g><path d="m22 14.5h-1c-.276 0-.5-.224-.5-.5s.224-.5.5-.5h1c.276 0 .5.224.5.5s-.224.5-.5.5z" fill="#f68820"/></g><g><path d="m47 40c-1.105 0-2-.895-2-2 0-1.105.895-2 2-2 1.105 0 2 .895 2 2 0 1.105-.895 2-2 2z" fill="#f68820"/></g><g><path d="m46.25 20.75.75.75 2.25-2.25c.414-.414 1.086-.414 1.5 0 .414.414.414 1.086 0 1.5l-3 3c-.414.414-1.086.414-1.5 0l-1.5-1.5c-.414-.414-.414-1.086 0-1.5.414-.414 1.086-.414 1.5 0z" fill="#5c76b2"/></g><g><path d="m46.25 28.75.75.75 2.25-2.25c.414-.414 1.086-.414 1.5 0 .414.414.414 1.086 0 1.5l-3 3c-.414.414-1.086.414-1.5 0l-1.5-1.5c-.414-.414-.414-1.086 0-1.5.414-.414 1.086-.414 1.5 0z" fill="#5c76b2"/></g></g></svg>