<?xml version="1.0" encoding="UTF-8"?>
<!DOCTYPE svg PUBLIC "-//W3C//DTD SVG 1.1//EN" "http://www.w3.org/Graphics/SVG/1.1/DTD/svg11.dtd">
<!-- Creator: CorelDRAW 2018 (64-Bit Evaluation Version) -->
<svg xmlns="http://www.w3.org/2000/svg" xml:space="preserve" width="5.21037in" height="3.70509in" version="1.1" style="shape-rendering:geometricPrecision; text-rendering:geometricPrecision; image-rendering:optimizeQuality; fill-rule:evenodd; clip-rule:evenodd"
viewBox="0 0 485.35 345.13"
 xmlns:xlink="http://www.w3.org/1999/xlink">
 <defs>
  <style type="text/css">
   <![CDATA[
    .str0 {stroke:#6414DB;stroke-width:0.28;stroke-miterlimit:2.61313}
    .fil17 {fill:#403F41}
    .fil0 {fill:#414042}
    .fil16 {fill:#424143}
    .fil9 {fill:#5921AE}
    .fil4 {fill:#6414DB}
    .fil1 {fill:#98C431}
    .fil13 {fill:#A2C5EB}
    .fil8 {fill:#A9A9AA}
    .fil14 {fill:#B0882B}
    .fil2 {fill:#B2E63A}
    .fil3 {fill:#C6C5C6}
    .fil18 {fill:#D2D3D5}
    .fil6 {fill:#D4FC79}
    .fil7 {fill:#D9D9D9}
    .fil12 {fill:#FAB81B}
    .fil15 {fill:#FBBF32}
    .fil11 {fill:#FBFBFB}
    .fil5 {fill:#FEFEFE}
    .fil10 {fill:#FF5454}
    .fil19 {fill:#EEEDEE;fill-rule:nonzero}
   ]]>
  </style>
 </defs>
 <g id="Layer_x0020_1">
  <metadata id="CorelCorpID_0Corel-Layer"/>
  <path class="fil0" d="M87.53 327.13c-0.5,-1.18 -1.42,-3.03 -1.72,-5.35 -4.16,-2.39 -4.57,-0.27 -10.22,-6.37l-1.65 -1.32c-0.63,5.63 -4.09,9.3 -9.13,10.81 -0.14,0.04 -0.94,0.27 -1,0.29 -0.12,0.04 -0.23,0.08 -0.34,0.12l-1.03 0.48 0.47 3.8c1.69,9.74 7.16,4.51 8.32,8.99 0.27,1.03 -0.35,-0.26 0.2,0.78 0.59,1.11 -0.9,-0.01 0.57,0.6l26.82 -0.05c-2.58,-2.85 2.24,-2.95 -3.87,-7.63 -1.75,-1.34 -5.62,-4.53 -7.41,-5.16zm200.65 0.37l-0.49 12.18 17.15 -0.03c-3.45,-7.82 11.16,-4.74 13.93,-12.57 0.75,-0.42 3.22,-4.74 3.48,-6.18l-8.24 -7.85c-2.96,1.21 -5.09,3.98 -8.13,5.61l-13.6 -19.78 -0.68 1.19c-0.12,0.33 -0.29,1.35 -0.35,1.65 -0.19,1.13 -0.39,2.2 -0.57,3.27 -1.21,7.11 -2.19,15.32 -2.52,22.51zm-158.2 -6.53c2.09,-2.58 0.57,-4.2 -2.15,-4.04 -0.87,0.99 -1.17,1.38 -1.16,3 1.03,0.99 1.52,1.38 3.31,1.05zm209.02 5.46c-4.22,3.7 -1.82,-3.24 -11.72,9.23l-3.59 3.93 60.02 -0.07c0.07,-2.95 0.53,-8.15 -0.67,-10.39 1.22,-4.2 -2.06,-23.23 -3.03,-28.37 -4.07,-21.66 -14.49,-51.53 -33.08,-61.67 -8.2,-4.47 -17.04,-3.54 -24.48,1.26 -3.84,2.47 -5.56,4.56 -8.43,7.37 -5.81,5.69 -3.96,6.38 -2.75,10 3.49,10.5 5.84,20.12 8.96,30.3 0.89,2.9 4.71,4.51 8.67,7.08 2.31,1.5 4.94,3.95 1.42,6.05l-2.02 1.18c1.68,2.1 3.05,3.85 4.68,5.77 2.01,2.37 3.49,2.57 5.22,5.02 3.84,5.45 5.72,7.91 0.8,13.32zm-30.55 -77.51c0.99,-0.91 0.87,-1 1.55,-1.82 2.29,-2.72 5.64,-6.11 8.5,-8.16 1.34,-0.96 2.83,-1.7 3.74,-2.75l-19.59 0.02 5.8 12.7zm-85.79 -84.8c0.42,-0.79 0.24,0.11 0.09,-0.67 -0.09,-0.44 -0.95,-1.26 -0.05,-2.77 0.36,-0.6 1.6,-2.02 2.19,-2.6l-5.61 2.1c1.38,2.33 1.47,4.44 3.38,3.94zm24.62 1.22c2.74,2.1 5.04,1.24 9.11,1.08 3.26,-0.13 6.52,-0.29 9.81,-0.42l38.26 -1.7c1.59,-0.3 11.07,-5.93 12.72,-7.1 -1.33,-2.26 -2.85,-3.39 -4.23,-4.92l-1.7 -1.56c-0.35,-1.52 -1.14,-1.36 -3.34,-4.1 -0.98,-1.22 -2.67,-2.92 -3.74,-3.96 -0.92,0.4 -2.75,2.09 -3.62,2.81 -1.07,0.89 -2.04,1.9 -3.38,2.58 -1.73,0.88 -35.69,7.1 -41.34,8.14 -3.68,0.68 -7.15,2.19 -10.07,0.5 -3.27,-1.9 -13.24,-7.83 -17.15,-7.74 -2.5,1.58 -8.26,7.14 -9.7,9.04 10.3,-2.78 7.6,-5.87 14.95,-0.94l13.4 8.27zm65.31 -16.64c0.99,1.48 11.43,12.31 12.44,14.1 4.61,-0.36 9.21,-4.1 11.3,-6.72 8.82,-11.05 -2.03,-33.2 -10.65,-36.82 -8.15,-4.21 -16.03,10.52 -20.08,16.75 -1.47,2.26 -1.78,3.02 -0.13,4.95l7.11 7.73zm24.49 46.3c1.24,1.08 12.5,4.49 14.3,5.09 4.82,1.61 9.5,3.27 14.36,4.67l-7.51 -31.15c-1.27,-5.2 -2.51,-10.22 -3.81,-15.51 -0.76,-3.09 -2.3,-13.59 -3.91,-15.26 0.15,-4.06 -5.4,-15.75 -7.43,-19.42 -2.58,-4.67 -8.41,-12.88 -11.59,-15.02l-1.55 1.61c-1.25,1.24 -2.99,2.17 -4.78,2.87 -3.19,1.24 -6.26,1.46 -9.89,1.32 -5.44,-0.8 -5.95,-1.29 -9.77,-3.4 -2.7,5.56 -5.14,11.81 -7.7,17.44 -3.22,7.06 -6.42,12.46 -6.2,18.99 3.63,-0.54 4.41,-0.5 6.58,-2.41 1.57,-1.38 2.78,-2.26 4.38,-3.82 -0.71,-3.75 0.14,-4.31 1.85,-7.03 2.48,-3.93 5.14,-8.13 8.09,-11.54 1.61,-1.86 3.33,-3.21 4.9,-4.7 9.15,-3.13 13.46,1.86 16.94,6.75 3.23,4.53 6.59,11.35 7.22,18.39 1.36,15.37 -11.6,22.15 -16.06,21.99 -1.81,-0.06 -5.27,-4.35 -6.29,-5.98 -1.99,0.48 -5.78,3.05 -7.86,4.24 -2.87,1.66 -4.57,2.96 -8.44,3.44 0.93,1.72 2.14,3.14 3.28,4.85l8.44 15.04c1.44,2.89 5.39,3.27 10.78,5.02 2.68,0.87 9.55,3.47 11.67,3.53zm-23.75 -141.88c-5.69,-1.53 -10.45,2.35 -11.66,6.73 -1.64,5.94 2.35,10.94 6.67,12.11 12.55,3.4 18.21,-15.29 4.99,-18.84zm-23.82 -3.95c-5.77,-1.82 -10.69,2.48 -11.82,6.87 -1.5,5.84 2.32,10.67 6.83,11.93 11.91,3.32 18.5,-14.54 4.99,-18.8zm-106.85 108.66l1.8 -0.04c1.01,-2.85 -18.19,-97.98 -19.86,-110.83l-4.89 0.97 -6.16 1.31 20.32 110.66c1.88,-0.27 7.79,-1.02 8.79,-2.07zm115.58 -113.98c-0.7,1.11 -1.92,2.15 -3.91,5.38 0.7,1.46 2.19,2.45 3.24,4.89 1.27,2.94 0.64,4.1 1,5.76 0.03,0.14 0.1,0.29 0.13,0.4l0.35 0.77c1.45,-0.8 0.52,0.08 1.22,-1.6 0.26,-0.62 0.38,-1.25 0.68,-1.92 0.6,-1.34 0.87,-1.61 1.97,-2.71 5.99,-6.01 14.27,-4.49 18.66,3.3l0.58 2.06c1.04,7.46 -3.58,13.18 -10.3,13.61 -10.88,0.69 -12.14,-10.64 -12.39,-11.11 -3.05,-0.01 -1.07,0.68 -4.63,4.12 -1.73,1.67 -2.79,1.83 -5.45,2.92 -0.33,7.71 4.13,14.31 8.78,19.22 6.76,7.12 14.15,-6.14 17.36,-5.83 0.31,1.54 -0.2,1.5 -1.48,2.48 -2.87,2.19 -1.92,2.42 -1.99,9.32 -0.07,7.45 -3.87,6.68 -5.01,11.09 1.85,4.12 8.34,4.57 13.73,4 2.75,-0.66 7.35,-2.08 6.89,-4.56 -0.62,-3.36 -1.61,-5.21 -1.89,-9.49 -0.35,-5.37 -0.29,-16.57 0.85,-21.6l1.48 0.1 -0.72 7.74c0.17,4.25 -0.42,8.48 -0.1,13.05 0.77,10.81 1.35,7.49 4.21,8.19 1.94,3.99 -1.16,0.33 3.46,5.48 11.04,12.29 16.42,24.87 19.92,41.99 2.77,13.51 7.02,29.14 10.36,42.99 1.68,6.98 4.3,12.32 0.46,12.88 -4.46,-0.94 -10.37,-3.27 -14.66,-4.68 -4.66,-1.54 -10.09,-3.58 -14.6,-4.84 -4.5,-1.43 -20.5,-6.13 -22.88,-8.11 -0.86,-2.85 -4.57,-8.54 -6.19,-11.67 -1.11,-2.15 -1.94,-3.67 -3.38,-5.58 -1.03,-1.38 -2.88,-3.84 -3.64,-5.25 -9.13,-0.16 -32.91,1.38 -43.8,1.85 -4.37,0.19 -6.82,0.94 -10.02,-1.04 -2.44,-1.51 -4.67,-2.89 -7.11,-4.4 -4.16,-2.56 -5.09,-4.21 -7.3,-3.3 -1.37,0.57 -6.53,3.17 -7.43,3.84l2.29 1.66c6.74,3.86 2.31,4.77 6.29,4.96 3.25,0.16 2.6,0.46 5.16,1.96 0.76,0.44 1.85,0.93 2.29,1.58 1.04,1.56 0.05,1.96 1.15,2.21l12.08 0.03 -0.05 6.07 -86.24 0.04 0.06 157.7 57.51 -0.06 40.65 -0.03c4.75,-0.1 9.67,-0.1 14.43,-0.04 3.89,0.05 4.09,0.89 4.1,-2.76 0.01,-2.54 0.13,-5.08 0.27,-7.62 0.21,-9.34 1.71,-19.77 3.37,-28.67 1.5,-8.01 1.33,-5.64 -2.4,-11.36 -2.17,-3.33 -4.63,-6.46 -6.53,-9.6 -0.07,-2.06 2.2,-9.29 2.85,-11.88 4.19,-16.67 3.67,-23.12 2.9,-40.11 3.17,0.23 12.29,0.97 14.18,2.22l1.63 2.85 22.51 0.21c3.54,0.43 10.5,-0.39 14.73,-0.26 4.87,0.16 9.81,0.11 14.66,0.11l19.45 -0.12 8.2 -44.5c-3.09,-2.29 -2.39,-4.53 -1.65,-8.68 0.57,-3.19 1.16,-6.21 1.73,-9.38 1.15,-6.31 2.34,-12.68 3.51,-19.11 1.18,-6.51 2.36,-12.64 3.52,-19.13 1.74,-9.68 1.07,-13.21 6.44,-15.56l1.15 -6.32 3.42 0.13 -1.14 6.73c3.12,1.39 3.92,3.83 3.15,8.06 -0.6,3.31 -1.2,6.52 -1.78,9.7 -2.75,15.28 -6.04,34.64 -9.1,49.43 -0.79,3.82 -2.06,4.4 -5.78,5.57 -2.52,7.88 -7.36,43.22 -9.08,46.56l-25.33 -0.01c1.17,1.42 4.83,3.06 8.96,7.38 7.86,8.2 13.59,18.55 17.68,29.72 5.7,15.59 9.7,33.65 10.7,52.08l0.52 13.99c4.57,0.68 13.58,0.12 18.63,0.12l75.14 -0.11c6.48,-0.07 4.2,3.81 3.44,4.4 -1.54,1.2 -42.08,0.59 -46.14,0.6l-403.33 0.62c-2.9,0 -7.03,0.71 -7.6,-1.82 -0.8,-3.51 3.22,-3.14 5.89,-3.13 7.58,0.04 21.8,0.32 28.15,-0.1 -1.67,-2.25 -2.38,-3.64 -3.94,-6.73l-3.8 -6.18c-0.03,-0.16 -0.14,-0.18 -0.21,-0.27 0.22,-5.57 1.24,-3.96 2.68,-7.79 -0.92,-3.79 -5.01,-5.61 -6.85,-10.89 -2.11,-6.05 -0.83,-9.51 1.03,-14.72 -8.2,-2.95 -7.44,2.84 -19.18,2.96 -7.47,0.08 -14.41,-3.79 -13.64,-11.48 0.38,-3.72 2.57,-5.84 4.1,-8.25 1.59,-2.5 3.46,-7.29 0.47,-9.18 -2.63,-1.67 -8.77,-0.06 -10.11,-2.27 -2.81,-4.65 5.63,-3.99 8.49,-3.68 3.31,1.02 5.63,1.95 7.04,4.4 1.72,2.99 1.58,6.59 0.2,9.99 -0.61,1.5 -1.28,2.63 -2.09,3.91 -1.24,1.96 -6.92,8.22 1.03,10.88 7.17,2.41 13.19,-2.07 19.06,-3.64 4.55,-1.21 9.37,0.41 10.36,0.14 0.98,-0.27 3.04,-2.26 8.02,-3.49 22.11,-5.47 40.4,21.31 46.39,23.04 9.33,2.69 18.08,-2.36 20.28,-2.64l0.06 2.57c1.48,-0.62 0.73,-0.68 2.2,-0.82 -0.18,2.63 -1.61,4.26 -0.95,7.03 4.01,3.06 22.27,6.54 17.42,13.03 -1.5,-0.32 -2.34,-0.82 -4.37,-1.07 -0.61,-2.03 -1.74,-1.79 -5.66,-2.38 -2.3,-0.35 -5.14,-1 -7.39,-0.68 -0.42,3.49 2,3.87 -1.09,7.03 -1.44,1.48 -5.4,2.21 -7.57,1.23 -0.81,-0.37 -1.58,-1.1 -3.01,-1.67 -3.84,-1.55 -5.4,-0.87 -8.71,-6.63 -6.63,0.15 -15.22,0.28 -12.43,6.84 2.94,6.93 5.83,5.83 9.99,11.38l33.25 -0.08 5.54 0.02 13.63 -0.09 -0.1 -157.64 -24 -0.19 0.03 -5.92 26.63 -0.11c-2.72,-2.13 -4.95,-3.32 -5.26,-8.07 -0.26,-4.07 -0.02,-8.99 -0.02,-13.16 0,-11.35 0.74,-43.99 -0.95,-52.96 -1.25,-6.64 -3.71,-16.77 -4.12,-23.14 1.52,-0.13 1.67,-0.04 2.85,-0.72 -0.45,-6.85 -5.66,-25.25 -4.87,-30.03 1.76,-0.93 11.85,-3.3 13.87,-2.59 1.36,1.03 1.52,4.44 1.93,6.65 3.15,17.01 20.06,105.68 19.16,107.01 -1.52,1.03 -11.32,3.46 -13.83,2.85 -1.77,-2.3 -5.75,-26.73 -6.52,-31.78l-3.21 0.2 -2.12 -11.61c-0.86,9.67 -0.15,22.67 -0.15,32.7 0,14.27 -2.84,23.33 9.28,23.31 21.51,-0.04 43.81,0.59 65.2,-0.04l-24.26 -14.26c-1.26,-0.69 -4.18,-2.96 -1.26,-2.84 1.64,0.06 0.87,0.84 2.32,0.61 1.46,-0.24 1.06,-1.3 3.46,0.26 1.11,-0.98 0.57,-0.31 1.24,-1.37l-3.24 -0.02c-0.76,-2.62 0.3,-3.07 1.87,-4.29 12.71,-9.84 6.74,-9.94 21.01,-3.26 13.99,6.55 7.79,6.97 19.37,4.78l33.64 -6.46c0.25,-7 0.25,-6.46 2.86,-12.08l9.1 -20.78c4.82,-10.55 0.07,-5.16 2.09,-10.66 3.15,-0.74 1.95,0.64 3.81,-1.79 0.8,-1.05 1.85,-2.15 2.37,-3.17 1.13,-2.19 0.83,-7.56 0.82,-10.25 -5.84,2.91 -8.18,7.47 -15.77,-1.28 -2.85,-3.28 -5.2,-7.96 -6.29,-12.51 -0.38,-1.57 -0.43,-3.75 -0.95,-4.98 -3.31,-1.61 -5.48,-0.4 -8.6,-3.79 -4.22,-4.57 -4.23,-12.03 1.3,-16.76 2.79,-2.39 5.05,-2.15 9.21,-2.34 0.51,0.24 2.16,0.9 3.21,1.27 0.33,-0.33 0.32,-0.31 0.67,-0.75 0.13,-0.16 0.44,-0.6 0.56,-0.77 1.13,-1.64 1.87,-2.95 3.54,-4.22l0.81 1.05z"/>
  <path class="fil1" d="M365.71 206.78c-0.61,5.71 1.06,8.71 -3.25,16.41 -3.94,7.05 -8.31,7.59 -9.91,9.63 -4.85,-0.01 -9.79,0.04 -14.66,-0.11 -4.23,-0.13 -11.19,0.69 -14.73,0.26l-11.96 -2.06c-2.1,-0.24 -4.17,-0.51 -6.19,-0.75 -1.08,-0.13 -2.01,-0.25 -3.04,-0.39l-2.21 -0.15c-0.65,0.1 -0.34,0 -0.74,0.3 -1.89,-1.25 -11.01,-1.99 -14.18,-2.22 0.77,16.99 1.29,23.44 -2.9,40.11 -0.65,2.59 -2.91,9.83 -2.85,11.88l-5.04 15.55 -2.49 0.12c-4.9,-21.48 -10.87,-74.13 13.49,-84.7 8.43,-3.66 17.2,1.18 36.95,-6.2 2.72,-1.01 13.72,-5.08 14.44,-7.19 4.52,1.26 9.95,3.3 14.6,4.84 4.29,1.42 10.2,3.74 14.66,4.68z"/>
  <path class="fil2" d="M336.45 197.26c-0.72,2.11 -11.72,6.18 -14.44,7.19 -19.75,7.37 -28.52,2.54 -36.95,6.2 -24.35,10.57 -18.38,63.22 -13.49,84.7l-19.49 -0.11c-0.32,-23.39 0.57,-47.15 0.55,-70.6 -0,-4.89 -0.55,-12.61 0.92,-16.87 1.45,-4.2 4.89,-7.55 8.37,-9.14l21.31 -5.62c1.72,-0.45 5.7,-1.3 6.72,-2.22l23.62 -1.64c2.38,1.97 18.39,6.68 22.88,8.11z"/>
  <path class="fil3" d="M350.52 142.83c1.36,8.67 -0.61,21.46 -2.85,29.69 -1.23,4.53 -6.84,21.67 -10.58,22.47 -2.12,-0.06 -8.99,-2.66 -11.67,-3.53 -5.4,-1.75 -9.35,-2.13 -10.78,-5.02l-8.44 -15.04c-1.14,-1.71 -2.35,-3.13 -3.28,-4.85 3.86,-0.48 5.56,-1.78 8.44,-3.44 2.08,-1.2 5.87,-3.76 7.86,-4.24 1.02,1.63 4.48,5.92 6.29,5.98 4.46,0.15 17.42,-6.62 16.06,-21.99 -0.62,-7.04 -3.99,-13.85 -7.22,-18.39 -3.48,-4.89 -7.79,-9.88 -16.94,-6.75 -0.83,-1.84 -0.6,-2.11 -2.13,-3.54 3.63,0.14 6.7,-0.08 9.89,-1.32 1.78,-0.69 3.53,-1.63 4.78,-2.87l1.55 -1.61c3.18,2.14 9.01,10.35 11.59,15.02 2.03,3.67 7.58,15.36 7.43,19.42z"/>
  <path class="fil4 str0" d="M345.94 41.8c-0.57,-5.3 -3.72,-9.79 -6.39,-11.72 -4.23,-3.06 -8.03,-4.19 -14.49,-3.32 1.42,0.77 5.06,1.61 6.02,2.85 2.7,4.35 5.01,8.64 5.49,14.93 0.39,5.19 -0.98,13.28 -3.83,16.54 -1.38,-1.37 -2.21,-2.49 -4.76,-2.81 -2.75,-0.35 -4.05,0.66 -5.8,1.91l-0.58 -2.06 0.31 -8.83c-5.02,0.94 -8.41,0.84 -13.23,-0.73 -1.98,-0.64 -3.64,-1.22 -5.53,-2.12 -1.71,-0.81 -3.51,-2.02 -4.89,-2.59l-0.81 -1.05c-1.67,1.27 -2.41,2.57 -3.54,4.22 -0.12,0.17 -0.43,0.61 -0.56,0.77 -0.36,0.45 -0.34,0.42 -0.67,0.75 -1.04,-0.38 -2.7,-1.04 -3.21,-1.27 2.53,-7.82 6.56,-13 12.03,-16.54 7.79,-5.04 13.21,-5.08 23.38,-3.93 1.41,-6.9 9.44,-13.1 18.51,-12.04 14.26,9.19 6.44,26.33 2.57,27.04z"/>
  <path class="fil5" d="M301.14 80.74c-3.09,0.25 -2.76,-1.39 -3.43,1.12 2.25,0.69 7.45,0.75 7.59,-2.19 -1.84,-0.22 -2.02,0.89 -4.16,1.07zm-4.22 -5.88c0.1,0.09 4.5,0.55 4.92,-1.73 -1.22,-0.68 -2,-0.06 -3.6,0.09 0.24,-2.01 1.13,-5.29 0.36,-6.81 -1.67,0.59 -1.25,1.68 -1.53,3.81 -0.12,0.89 -0.33,1.93 -0.41,2.79l0.26 1.86zm35.81 -13.78c1.91,5.25 0.94,6.3 -2.23,9.57 -3.22,-2.33 -5.5,-1.75 -5,2.56 -1.39,1.03 -1.49,1.77 -2.54,2.93 -0.9,1 -1.96,1.78 -2.86,2.67 -2.32,2.31 -1.13,5.77 -0.87,9.41 0.43,6.07 1.94,16.33 1.58,21.77 -5.39,0.58 -11.88,0.12 -13.73,-4 1.14,-4.41 4.94,-3.63 5.01,-11.09 0.07,-6.9 -0.88,-7.13 1.99,-9.32 1.28,-0.98 1.78,-0.94 1.48,-2.48 -3.2,-0.31 -10.6,12.95 -17.36,5.83 -4.65,-4.91 -9.11,-11.51 -8.78,-19.22 2.66,-1.08 3.72,-1.25 5.45,-2.92 3.56,-3.44 1.57,-4.13 4.63,-4.12 0.26,0.46 1.51,11.8 12.39,11.11 6.72,-0.43 11.34,-6.15 10.3,-13.61 1.75,-1.25 3.05,-2.26 5.8,-1.91 2.54,0.32 3.38,1.45 4.76,2.81z"/>
  <path class="fil6" d="M271.58 295.35l-5.76 -0.04 -18.65 -0.03 -1.84 -0.11c-0.4,-11.92 0.2,-24.78 0.24,-36.81 0.04,-12.38 0.28,-24.76 0.29,-37.13 0.01,-12.65 -1.05,-23.45 10.27,-26.72 7.39,-2.14 25.42,-3.33 33.83,-3.72 -1.02,0.93 -5,1.78 -6.72,2.22l-21.31 5.62c-3.48,1.59 -6.92,4.95 -8.37,9.14 -1.46,4.25 -0.92,11.98 -0.92,16.87 0.02,23.44 -0.88,47.21 -0.55,70.6l19.49 0.11z"/>
  <path class="fil7" d="M182.67 157.82c-1,1.05 -6.91,1.8 -8.79,2.07l-20.32 -110.66 6.16 -1.31 20.19 110.48 2.77 -0.58z"/>
  <path class="fil5" d="M311.26 150.73c-10.56,5.83 -49.6,14.49 -63.98,14.61l-13.4 -8.27c-7.35,-4.92 -4.65,-1.84 -14.95,0.94 1.45,-1.91 7.2,-7.46 9.7,-9.04 3.9,-0.09 13.88,5.84 17.15,7.74 2.91,1.69 6.39,0.18 10.07,-0.5 5.65,-1.05 39.61,-7.27 41.34,-8.14 1.33,-0.68 2.31,-1.69 3.38,-2.58 0.86,-0.72 2.7,-2.41 3.62,-2.81 1.07,1.04 2.76,2.74 3.74,3.96 2.21,2.74 2.99,2.57 3.34,4.1z"/>
  <path class="fil8" d="M337.09 195c3.73,-0.8 9.34,-17.95 10.58,-22.47 2.25,-8.24 4.21,-21.02 2.85,-29.69 1.62,1.67 3.15,12.17 3.91,15.26 1.3,5.29 2.53,10.31 3.81,15.51l7.51 31.15c-4.87,-1.4 -9.54,-3.06 -14.36,-4.67 -1.8,-0.6 -13.06,-4.01 -14.3,-5.09z"/>
  <path class="fil9 str0" d="M327.41 82.19l0.72 -7.74c2.06,-0.55 2.26,-1.67 2.37,-3.8 3.17,-3.27 4.14,-4.32 2.23,-9.57 2.85,-3.26 4.22,-11.35 3.83,-16.54 -0.48,-6.29 -2.79,-10.58 -5.49,-14.93 3.68,1.36 7,4.81 9.01,7.19 3.18,3.75 3.55,6.44 4.82,8.82 0.79,1.47 0.17,0.51 0.96,1.21l0.07 -5.03c3.87,-0.71 11.69,-17.85 -2.57,-27.04 17.19,2.03 20.62,25.56 5.13,32.68l-2.66 1.36c1.24,8.6 -0.11,15.22 -3.66,21.35 -2.73,4.72 -8.36,9.91 -14.77,12.04z"/>
  <path class="fil3" d="M312.59 148.7c4.94,-1.39 15.47,-22.67 13.09,-29.44 8.61,3.62 19.47,25.77 10.65,36.82 -2.09,2.62 -6.69,6.36 -11.3,6.72 -1.01,-1.78 -11.45,-12.61 -12.44,-14.1z"/>
  <path class="fil5" d="M182.67 157.82l-2.77 0.58 -20.19 -110.48 4.89 -0.97c1.68,12.84 20.87,107.98 19.86,110.83l-1.8 0.04z"/>
  <path class="fil4" d="M264.4 325.33l2.2 -0.26c0.17,2.66 0.14,5.34 0.24,7.99 0.1,2.82 0.72,5.35 -0.98,6.68l-40.65 0.03c-0.78,-1.11 -0.75,-0.78 -0.8,-2.53 1.63,-1.42 3.96,-2.53 5.67,-3.59 1.99,-1.23 3.66,-2.29 5.56,-3.41 4.49,-2.65 6.79,-3.7 12.07,-5.64l2.12 -0.23c1.07,0.32 2.19,0.4 2.58,0.97 0.56,0.81 -0.24,0.74 0.15,2.14l11.84 -2.15z"/>
  <path class="fil5" d="M264.4 325.33l-11.84 2.15c-0.39,-1.41 0.42,-1.34 -0.15,-2.14 -0.4,-0.56 -1.51,-0.65 -2.58,-0.97l-0.32 -23.38 17.42 0.1c-0.53,3.7 -1.52,7.28 -1.93,11.47 -0.42,4.29 -0.49,8.45 -0.6,12.77z"/>
  <path class="fil3" d="M247.28 165.34c14.38,-0.12 53.42,-8.78 63.98,-14.61l1.7 1.56c1.38,1.53 2.91,2.66 4.23,4.92 -1.65,1.17 -11.13,6.79 -12.72,7.1l-38.26 1.7c-3.29,0.13 -6.55,0.29 -9.81,0.42 -4.08,0.16 -6.37,1.02 -9.11,-1.08z"/>
  <path class="fil5" d="M325.68 119.26c2.38,6.77 -8.15,28.06 -13.09,29.44l-7.11 -7.73c-1.65,-1.94 -1.34,-2.69 0.13,-4.95 4.04,-6.23 11.93,-20.97 20.08,-16.75z"/>
  <path class="fil5" d="M315.28 114.19c1.53,1.43 1.3,1.7 2.13,3.54 -1.57,1.48 -3.3,2.83 -4.9,4.7 -2.95,3.42 -5.61,7.61 -8.09,11.54 -1.71,2.72 -2.56,3.28 -1.85,7.03 -1.6,1.56 -2.81,2.44 -4.38,3.82 -2.17,1.91 -2.95,1.88 -6.58,2.41 -0.21,-6.53 2.99,-11.93 6.2,-18.99 2.56,-5.63 5,-11.88 7.7,-17.44 3.82,2.11 4.33,2.6 9.77,3.4z"/>
  <path class="fil10" d="M205.57 69.11c12.59,2.87 8.18,21.35 -4.21,18.54 -4.32,-0.98 -8.24,-5.65 -7.05,-11.31 0.93,-4.37 5.53,-8.54 11.26,-7.23z"/>
  <path class="fil5" d="M307.17 66.34c2.9,-0.56 2.88,-4.47 0.85,-6.27 -2.76,1.13 -2.45,4.61 -0.85,6.27zm7.26 -5.54c0.34,-0.49 0.56,0.72 0.46,-1.3 -0.09,-1.86 -2.5,-3.52 -4.81,-3.7 -2.57,-0.2 -2.09,0.73 -2.28,1.1 1.17,0.66 0.99,0.32 2.32,0.5 0.73,0.1 1.25,0.2 1.89,0.63 1.65,1.1 0.66,1.85 2.42,2.76zm-1.09 -7.69c13.22,3.55 7.56,22.24 -4.99,18.84 -4.31,-1.17 -8.31,-6.17 -6.67,-12.11 1.21,-4.38 5.97,-8.26 11.66,-6.73z"/>
  <path class="fil11" d="M290.43 56.88c-1.32,1.74 -2.42,5.21 0.52,6.38 1.14,-0.71 1.64,-1.42 1.69,-3.37 0.05,-2.12 -0.42,-2.69 -2.2,-3.01zm-3.85 -1.21c2.46,-0.39 1.49,-1.3 3.25,-2 1.7,-0.67 2.74,0.07 4.55,-0.09 -0.98,-3.86 -7.51,-1.48 -7.8,2.09zm2.94 -6.51c13.51,4.26 6.91,22.13 -4.99,18.8 -4.51,-1.26 -8.32,-6.09 -6.83,-11.93 1.13,-4.4 6.05,-8.69 11.82,-6.87z"/>
  <path class="fil3" d="M326.65 74.34c-1.14,5.03 -1.19,16.23 -0.85,21.6 0.28,4.28 1.27,6.12 1.89,9.49 0.45,2.48 -4.14,3.9 -6.89,4.56 0.36,-5.45 -1.15,-15.7 -1.58,-21.77 -0.26,-3.63 -1.45,-7.1 0.87,-9.41 0.9,-0.9 1.96,-1.67 2.86,-2.67 1.05,-1.16 1.15,-1.9 2.54,-2.93l1.15 1.13z"/>
  <path class="fil1" d="M149.37 325.86c1.52,1.87 3.77,3.17 3.31,7.6 -0.39,3.75 -2.69,4.7 -4.77,6.37l-5.54 -0.02c-2.47,-1.85 -5.53,-3.44 -4.81,-8.48 0.56,-3.9 3.46,-5.85 7.43,-6.55 2.03,0.25 2.86,0.75 4.37,1.07z"/>
  <path class="fil5" d="M321.59 58.11c-4.39,-7.79 -12.66,-9.31 -18.66,-3.3 -1.1,1.1 -1.38,1.37 -1.97,2.71 -0.3,0.67 -0.42,1.3 -0.68,1.92 -0.7,1.68 0.23,0.8 -1.22,1.6l-0.35 -0.77c-0.03,-0.11 -0.1,-0.26 -0.13,-0.4 -0.36,-1.66 0.27,-2.82 -1,-5.76 -1.06,-2.44 -2.54,-3.43 -3.24,-4.89 1.99,-3.23 3.21,-4.27 3.91,-5.38 1.38,0.57 3.18,1.78 4.89,2.59 1.89,0.89 3.55,1.47 5.53,2.12 4.82,1.57 8.21,1.67 13.23,0.73l-0.31 8.83z"/>
  <path class="fil12" d="M266.93 301.09l-17.42 -0.1 -1.87 0.02c-0.7,-2.05 -0.4,-3.43 -0.48,-5.73l18.65 0.03 -0.01 4.45c0.5,1.59 -0.4,0.39 1.12,1.33z"/>
  <path class="fil0" d="M9.26 340.1c8.11,0 10.74,-1.19 10.28,3.78 -2.72,1.8 -5.85,1.12 -9.43,1.15 -3.45,0.03 -7.38,0.46 -9.87,-0.79 -1.54,-5.69 4.46,-4.13 9.01,-4.13z"/>
  <path class="fil12" d="M345.94 41.8l-0.07 5.03c-0.8,-0.71 -0.17,0.26 -0.96,-1.21 -1.28,-2.38 -1.65,-5.07 -4.82,-8.82 -2.02,-2.38 -5.34,-5.83 -9.01,-7.19 -0.96,-1.25 -4.6,-2.09 -6.02,-2.85 6.46,-0.87 10.26,0.26 14.49,3.32 2.67,1.93 5.82,6.42 6.39,11.72z"/>
  <path class="fil1" d="M199.63 101.98c6.72,1.67 4.29,11.47 -2.43,9.86 -6.41,-1.54 -3.96,-11.44 2.43,-9.86z"/>
  <path class="fil13" d="M212.67 117.91c6.99,2.06 3.91,11.49 -2.7,9.78 -5.89,-1.52 -3.78,-11.69 2.7,-9.78z"/>
  <polygon class="fil0" points="108.43,182.07 97.5,182.09 97.51,175.93 108.4,175.95 "/>
  <polygon class="fil0" points="130.14,182.1 119.21,182.07 119.29,175.99 130.18,175.98 "/>
  <path class="fil14" d="M269.13 301.04l-2.2 0.04c-1.52,-0.93 -0.63,0.26 -1.12,-1.33l0.01 -4.45 5.76 0.04 2.49 -0.12 3.34 0.09 -0.07 5.61 -8.21 0.11z"/>
  <path class="fil0" d="M266.5 324.52l0.11 0.55 -2.2 0.26c0.11,-4.32 0.18,-8.48 0.6,-12.77 0.41,-4.19 1.4,-7.77 1.93,-11.47l2.2 -0.04c-1.59,8.2 -2.78,14.48 -2.63,23.48z"/>
  <polygon class="fil0" points="249.84,324.37 247.72,324.6 247.64,301.01 249.51,300.99 "/>
  <path class="fil12" d="M225.54 88.01c5.4,1.76 2.31,9.09 -2.63,7.09 -3.67,-1.49 -2.18,-8.65 2.63,-7.09z"/>
  <polygon class="fil0" points="86.63,181.54 86.63,182.1 81.33,182.08 81.37,176.04 86.57,175.97 "/>
  <path class="fil15" d="M247.16 295.28c0.08,2.31 -0.22,3.68 0.48,5.73l-6.07 -0.18 0.15 -5.5 3.59 -0.16 1.84 0.11z"/>
  <path class="fil12" d="M330.5 70.65c-0.11,2.13 -0.32,3.25 -2.37,3.8l-1.48 -0.1 -1.15 -1.13c-0.5,-4.31 1.78,-4.89 5,-2.56z"/>
  <path class="fil16" d="M298.25 73.22c1.59,-0.14 2.37,-0.77 3.6,-0.09 -0.41,2.29 -4.82,1.82 -4.92,1.73l-0.26 -1.86c0.08,-0.85 0.3,-1.9 0.41,-2.79 0.28,-2.13 -0.14,-3.22 1.53,-3.81 0.77,1.52 -0.12,4.8 -0.36,6.81z"/>
  <path class="fil17" d="M290.43 56.88c1.79,0.32 2.26,0.89 2.2,3.01 -0.05,1.95 -0.55,2.67 -1.69,3.37 -2.94,-1.17 -1.84,-4.64 -0.52,-6.38z"/>
  <path class="fil0" d="M307.17 66.34c-1.59,-1.66 -1.91,-5.14 0.85,-6.27 2.02,1.8 2.05,5.71 -0.85,6.27z"/>
  <path class="fil18" d="M129.98 320.97c-1.78,0.33 -2.27,-0.06 -3.31,-1.05 -0.01,-1.61 0.29,-2 1.16,-3 2.71,-0.16 4.24,1.47 2.15,4.04z"/>
  <path class="fil0" d="M314.42 60.8c-1.76,-0.92 -0.77,-1.66 -2.42,-2.76 -0.64,-0.43 -1.15,-0.53 -1.89,-0.63 -1.33,-0.18 -1.15,0.16 -2.32,-0.5 0.18,-0.37 -0.29,-1.3 2.28,-1.1 2.31,0.18 4.72,1.84 4.81,3.7 0.1,2.01 -0.12,0.81 -0.46,1.3z"/>
  <path class="fil11" d="M222.66 164.12c-1.91,0.5 -2,-1.61 -3.38,-3.94l5.61 -2.1c-0.59,0.58 -1.83,2 -2.19,2.6 -0.9,1.52 -0.04,2.34 0.05,2.77 0.15,0.78 0.33,-0.13 -0.09,0.67z"/>
  <path class="fil17" d="M294.38 53.59c-1.81,0.16 -2.85,-0.58 -4.55,0.09 -1.77,0.69 -0.8,1.6 -3.25,2 0.29,-3.56 6.82,-5.95 7.8,-2.09z"/>
  <path class="fil17" d="M297.71 81.86c0.68,-2.52 0.34,-0.87 3.43,-1.12 2.14,-0.18 2.31,-1.29 4.16,-1.07 -0.14,2.94 -5.34,2.88 -7.59,2.19z"/>
  <polygon class="fil19" points="267.69,0 228,0 228,1.75 267.69,1.75 "/>
  <polygon class="fil19" points="253.86,0 251.98,0 251.98,19.69 253.86,19.69 "/>
  <polygon class="fil19" points="273.05,19.75 271.17,19.75 271.17,34.24 273.05,34.24 "/>
  <polygon class="fil19" points="238.13,19.75 236.26,19.75 236.26,34.24 238.13,34.24 "/>
  <polygon class="fil19" points="281.12,19.19 222.01,19.19 222.01,20.94 281.12,20.94 "/>
  <polygon class="fil19" points="51.4,122.24 49.69,122.24 49.69,107.24 51.4,107.24 "/>
  <polygon class="fil19" points="68.12,107.19 66.41,107.19 66.41,94.01 68.12,94.01 "/>
  <polygon class="fil19" points="32.14,107.19 30.43,107.19 30.43,94.01 32.14,94.01 "/>
  <polygon class="fil19" points="81.61,107.7 22.43,107.7 22.43,106.1 81.61,106.1 "/>
  <polygon class="fil19" points="115.67,241.59 78.93,241.59 78.93,243.21 115.67,243.21 "/>
  <polygon class="fil19" points="102.87,241.59 101.13,241.59 101.13,259.82 102.87,259.82 "/>
  <polygon class="fil19" points="120.64,259.87 118.91,259.87 118.91,273.29 120.64,273.29 "/>
  <polygon class="fil19" points="88.31,259.87 86.57,259.87 86.57,273.29 88.31,273.29 "/>
  <polygon class="fil19" points="128.11,259.36 73.39,259.36 73.39,260.98 128.11,260.98 "/>
 </g>
</svg>
