<svg id="Layer_1" xmlns="http://www.w3.org/2000/svg" viewBox="0 0 113 32"><style>.st0{fill:#fff}.st1{fill:#ec5453}</style><title>Logo@2x</title><g id="Symbols"><g id="Global-Header" transform="translate(-664 -17)"><g transform="translate(664 17)" id="Logo"><path id="Wordmark" class="st0" d="M47 17.8V9.9h3.4v7.8c0 2.8 1.3 3.4 3 3.4 1.9 0 2.9-.8 2.9-3.4V9.9h3.4v7.9c0 4.6-2 6.6-6.4 6.6-4.2 0-6.3-1.7-6.3-6.6zm22 5.5c-.8.6-1.8 1-3.2 1-2.9 0-5-1.8-5-5.5s2.4-5.7 5.5-5.7c.7 0 1.4.1 2.1.4V9h3.3v15.1h-2.1l-.6-.8zm-2.5-1.8c.7 0 1.3-.1 1.9-.6v-4.6c-.5-.3-1-.5-1.8-.5-1.6 0-2.5 1.1-2.5 2.9 0 1.8 1 2.8 2.4 2.8zm12.1 2.8c-3.1 0-5.7-1.5-5.7-5.6 0-3.8 2.4-5.5 5.2-5.5 3.4 0 4.9 2.4 4.9 6.1h-6.8c.2 1.8 1.4 2.4 2.9 2.4 1.3 0 2.4-.3 3.3-.8l-.5 2.6c-.8.5-1.9.8-3.3.8zm-2.4-6.6h4.2c-.2-1.4-1-2-2.1-2-.9 0-1.8.5-2.1 2zm11.4-.9v7.3h-3.3V13.4h2.3l.7.9c.9-.7 1.8-1.2 2.9-1.2 1.5 0 2.6.4 3.3 1.5 1-.9 2-1.5 3.4-1.5 2.5 0 4 1.3 4 4.8V24h-3.3v-5.7c0-1.6-.7-2.1-1.7-2.1-.6 0-1.1.2-1.7.5 0 .4.1.8.1 1.2V24H91v-5.7c0-1.6-.7-2.1-1.7-2.1-.6.1-1.1.2-1.7.6zm16.2 10.8h3.2l5.6-14.2h-3.2l-2.3 7.1-2.4-7.1h-3.6l4.3 10.2-1.6 4z"/><g id="Udemy_Symbol"><path id="Shape" class="st1" d="M38.3 18.2c-.1-.1-.3-.2-.5-.2-1 1-2.2 2-3.3 2.7-.5.3-1.1.5-1.5.5-1 0-1.4-.9-1.5-2.4-.2-1.9-.3-4.3-.3-7.8 0-3.7-.8-6.2-3.1-6.4h-.3c-1.4 0-2 .7-2.9 2.5-.7 1.5-1.9 3.7-4 8-1.9 3.6-3.9 6.8-5.7 9.1-.5.6-.9 1-1.3 1.3-.2.2-.5.2-.7.2-.7 0-1.2-.6-1.4-2 0-.3-.1-.7-.1-1.1 0-2.8 1.1-7.5 2.9-14.3 1.4-5 .8-8.3-2.2-8.3-.7 0-1.2.3-1.8.7-.2.4-.8 1.3-1.3 2.5-.5 1.4-3.9 8.2-9.3 11.7-.1 1.3.7 2.7 2.2 2.8 1.4.1 2.4-.5 3.6-1.3l-.3 1.2c-.1.4-.2.8-.2 1.1-.1.4-.2.7-.2.8-.2.8-.3 1.6-.4 2.3C4 28.6 7.2 32 10.9 32c.6 0 1.2-.1 1.8-.2 4.1-1 8-5.7 12.6-16.5-.1 1.2-.1 2.3 0 3.3.3 6.2 2.7 8 6.2 8 2.6 0 5-1.4 6.3-3C38.6 22.4 39 21 39 20c0-.8-.3-1.4-.7-1.8z"/></g></g></g></g></svg>