<svg id="Capa_1" enable-background="new 0 0 512 512" height="512" viewBox="0 0 512 512" width="512" xmlns="http://www.w3.org/2000/svg"><g><g><path d="m491.355 404.071h-470.71c-11.402 0-20.645-9.243-20.645-20.645v-9.581-310.123c0-11.402 9.243-20.645 20.645-20.645h470.71c11.402 0 20.645 9.243 20.645 20.645v310.124 9.581c0 11.401-9.243 20.644-20.645 20.644z" fill="#9e9e9e"/><path d="m491.355 394.491h-470.71c-11.402 0-20.645-9.243-20.645-20.645v18.581c0 11.402 9.243 20.645 20.645 20.645h470.71c11.402 0 20.645-9.243 20.645-20.645v-18.581c0 11.402-9.243 20.645-20.645 20.645z" fill="#898989"/><path d="m473.993 343.472v-230.795c-17.448 0-31.592-14.144-31.592-31.592h-372.801c0 17.448-14.144 31.592-31.592 31.592v230.795c10.501 0 19.806 5.124 25.55 13.008l24.042 9.585h336.8l23.396-8.664c5.677-8.404 15.292-13.929 26.197-13.929z" fill="#fff5f5"/><path d="m63.552 356.483c3.8 5.215 6.048 11.634 6.048 18.581h372.8c0-6.947 2.248-13.365 6.048-18.581z" fill="#efe2dd"/><path d="m388.134 413.071-7.126 8.46v42.224c0 3.792 3.951 6.289 7.376 4.662l23.865-11.336c1.401-.666 3.028-.666 4.429 0l23.865 11.336c3.425 1.627 7.376-.871 7.376-4.662v-42.224l-10.874-8.46z" fill="#ff4755"/><path d="m381.009 402.95v18.581c9.571 6.402 21.075 10.141 33.455 10.141s23.884-3.738 33.455-10.141v-18.581z" fill="#fc2b3a"/><path d="m473.995 343.471c-4.499-28.83-29.439-50.889-59.531-50.889-30.118 0-55.075 22.097-59.543 50.964-.469 3.028-.006 60.546 59.543 60.546 58.645-.001 60.007-57.569 59.531-60.621z" fill="#ffe27a"/><path d="m414.464 394.511c-30.118 0-55.072-22.098-59.54-50.965-.469 3.029-.715 6.131-.715 9.291 0 33.278 26.977 60.255 60.255 60.255s60.255-26.977 60.255-60.255c0-3.16-.246-6.262-.715-9.291-4.468 28.867-29.422 50.965-59.54 50.965z" fill="#f9cf58"/><path d="m443.086 343.544c-3.915-12.068-15.25-20.793-28.622-20.793s-24.707 8.725-28.622 20.793c-.949 2.926-.049 30.377 28.622 30.377 26.599.001 29.572-27.45 28.622-30.377z" fill="#ff9838"/><path d="m414.464 364.341c-13.372 0-24.701-8.727-28.616-20.795-.949 2.927-1.469 6.047-1.469 9.291 0 16.615 13.47 30.085 30.085 30.085s30.085-13.47 30.085-30.085c0-3.243-.519-6.364-1.469-9.291-3.915 12.068-15.244 20.795-28.616 20.795z" fill="#ff8709"/></g><g fill="#9e9e9e"><path d="m321.44 157.262c4.285 0 7.757-3.473 7.757-7.757s-3.472-7.757-7.757-7.757h-130.88c-4.285 0-7.757 3.473-7.757 7.757 0 4.285 3.473 7.757 7.757 7.757z"/><path d="m83.965 201.772c0 4.285 3.472 7.757 7.757 7.757h328.555c4.285 0 7.757-3.473 7.757-7.757 0-4.285-3.473-7.757-7.757-7.757h-328.554c-4.285 0-7.758 3.473-7.758 7.757z"/><path d="m91.723 261.796h328.555c4.285 0 7.757-3.473 7.757-7.757 0-4.285-3.473-7.757-7.757-7.757h-328.555c-4.285 0-7.757 3.473-7.757 7.757-.001 4.284 3.472 7.757 7.757 7.757z"/><path d="m91.723 314.063h150.244c4.285 0 7.757-3.473 7.757-7.757s-3.473-7.757-7.757-7.757h-150.244c-4.285 0-7.757 3.473-7.757 7.757s3.472 7.757 7.757 7.757z"/></g></g></svg>