<?xml version="1.0" encoding="iso-8859-1"?>
<!-- Generator: Adobe Illustrator 19.0.0, SVG Export Plug-In . SVG Version: 6.00 Build 0)  -->
<svg version="1.1" id="Capa_1" xmlns="http://www.w3.org/2000/svg" xmlns:xlink="http://www.w3.org/1999/xlink" x="0px" y="0px"
	 viewBox="0 0 512.001 512.001" style="enable-background:new 0 0 512.001 512.001;" xml:space="preserve">
<path style="fill:#FFC600;" d="M231.168,122.58l-20.167,10l-37.953-10c-33.85,0-61.29-27.44-61.29-61.29l0,0
	c0-33.85,27.44-61.29,61.29-61.29h58.12L231.168,122.58L231.168,122.58z"/>
<path style="fill:#FFE92F;" d="M340.933,122.58l19.568,10l22.93-10c24.751,0,44.816-20.065,44.816-44.816l0,0
	c0-24.751-20.065-44.816-44.816-44.816h-42.498V122.58z"/>
<path style="fill:#FFD82F;" d="M294.571,122.58l27.93,10l15.727-10c24.111,0,43.657-19.546,43.657-43.657v-2.318
	c0-24.111-19.546-43.657-43.657-43.657l0,0c-24.111,0-43.657,19.546-43.657,43.657l-10,14.895L294.571,122.58z"/>
<path style="fill:#F4AF00;" d="M294.571,122.58l-35.571,10l-24.134-10c-32.974,0-59.705-26.731-59.705-59.705v-3.17
	C175.162,26.731,201.892,0,234.866,0l0,0c32.974,0,59.705,26.731,59.705,59.705V122.58z"/>
<path style="fill:#7A6CF7;" d="M315.986,512H32.012c-10.234,0-18.53-8.296-18.53-18.53V141.127c0-10.234,8.296-18.53,18.53-18.53
	h283.974V512z"/>
<path style="fill:#6959E2;" d="M252.302,122.597v105.751c0,131.896-106.923,238.82-238.82,238.82l0,0v26.303
	c0,10.234,8.296,18.53,18.53,18.53h241.881c11.42,0,20.678-9.258,20.678-20.678V146.55c0-13.229-10.724-23.953-23.953-23.953
	H252.302z"/>
<path style="fill:#837AF4;" d="M479.99,512H313.714c-10.572,0-19.143-8.57-19.143-19.143v-347.11c0-12.785,10.365-23.15,23.15-23.15
	h162.268c10.234,0,18.53,8.296,18.53,18.53V493.47C498.519,503.704,490.223,512,479.99,512z"/>
<g>
	<circle style="fill:#F288E8;" cx="57.936" cy="208.34" r="21.362"/>
	<circle style="fill:#F288E8;" cx="116.741" cy="354.82" r="21.362"/>
	<circle style="fill:#F288E8;" cx="228.751" cy="193.03" r="21.362"/>
	<circle style="fill:#F288E8;" cx="344.261" cy="165.61" r="21.362"/>
	<circle style="fill:#F288E8;" cx="440.041" cy="248.91" r="21.362"/>
	<circle style="fill:#F288E8;" cx="365.621" cy="396.47" r="21.362"/>
	<circle style="fill:#F288E8;" cx="228.751" cy="450.22" r="21.362"/>
	<circle style="fill:#F288E8;" cx="52.67" cy="464.59" r="21.362"/>
</g>
<path style="fill:#7A6CF7;" d="M479.99,122.597h-15.883v174.524c0,93.631-75.903,169.535-169.535,169.535l0,0v25.804
	c0,10.792,8.749,19.541,19.541,19.541H479.99c10.234,0,18.53-8.296,18.53-18.53V141.127
	C498.519,130.893,490.223,122.597,479.99,122.597z"/>
<rect x="119.151" y="122.6" style="fill:#FFC600;" width="56.01" height="389.4"/>
<path style="fill:#F4AF00;" d="M119.155,442.556V512h56.006V404.1C158.504,419.432,139.662,432.421,119.155,442.556z"/>
<rect x="375.941" y="122.6" style="fill:#FFE92F;" width="56.01" height="389.4"/>
<path style="fill:#FFD82F;" d="M375.939,445.882V512h56.006V396.472C417.213,416.808,398.081,433.745,375.939,445.882z"/>
<path style="fill:#E29100;" d="M175.162,59.705v3.17c0,15.773,6.127,30.107,16.117,40.78c9.99-10.673,16.117-25.007,16.117-40.78
	v-3.17c0-15.773-6.127-30.107-16.117-40.78C181.288,29.598,175.162,43.932,175.162,59.705z"/>
<g>
</g>
<g>
</g>
<g>
</g>
<g>
</g>
<g>
</g>
<g>
</g>
<g>
</g>
<g>
</g>
<g>
</g>
<g>
</g>
<g>
</g>
<g>
</g>
<g>
</g>
<g>
</g>
<g>
</g>
</svg>
