<?xml version="1.0" encoding="iso-8859-1"?>
<!-- Generator: Adobe Illustrator 19.0.0, SVG Export Plug-In . SVG Version: 6.00 Build 0)  -->
<svg version="1.1" id="Capa_1" xmlns="http://www.w3.org/2000/svg" xmlns:xlink="http://www.w3.org/1999/xlink" x="0px" y="0px"
	 viewBox="0 0 511.999 511.999" style="enable-background:new 0 0 511.999 511.999;" xml:space="preserve">
<path style="fill:#2FCC63;" d="M24.207,288.588h149.205c26.167-41.013,72.071-68.269,124.223-68.269
	c18.305,0,35.835,3.367,52.018,9.498l55.259-95.711c4.006-6.939,1.629-15.811-5.31-19.817L205.017,1.946
	c-6.939-4.006-15.811-1.629-19.817,5.31L22.728,288.666C23.214,288.615,23.707,288.588,24.207,288.588z"/>
<path style="fill:#23B658;" d="M128.464,105.525L22.728,288.666c0.486-0.05,0.979-0.078,1.479-0.078h149.205
	c5.516-8.646,11.919-16.671,19.063-23.968C140.838,229.077,115.91,166.519,128.464,105.525z"/>
<g>
	<path style="fill:#4CE079;" d="M185.2,7.577l-27.683,47.948c33.42,19.295,76.153,7.845,95.448-25.575L205.017,2.267
		C198.079-1.739,189.206,0.638,185.2,7.577z"/>
	<path style="fill:#4CE079;" d="M399.601,114.61l-47.948-27.683c-19.295,33.42-7.844,76.154,25.575,95.448l27.683-47.948
		C408.917,127.489,406.54,118.616,399.601,114.61z"/>
	<path style="fill:#4CE079;" d="M143.302,247.669c-0.708,15.389,4.106,29.628,12.623,40.919h17.487
		c20.293-31.805,52.459-55.327,90.2-64.29c-10.144-22.026-32.595-37.214-58.549-36.714
		C172.074,188.22,144.819,214.709,143.302,247.669z"/>
</g>
<path style="fill:#2FCC63;" d="M192.473,264.618c-16.673-11.477-30.981-26.138-42.061-43.098c-4.149,7.893-6.678,16.756-7.11,26.149
	c-0.708,15.389,4.106,29.629,12.623,40.919h17.487C179.005,279.84,185.463,271.776,192.473,264.618z"/>
<path style="fill:#4CE079;" d="M254.784,159.972c-1.319,0-2.655-0.336-3.879-1.042c-3.718-2.146-4.991-6.9-2.845-10.617
	l17.641-30.555c2.146-3.718,6.9-4.992,10.617-2.845c3.718,2.146,4.991,6.9,2.845,10.617l-17.641,30.555
	C260.082,158.579,257.47,159.972,254.784,159.972z"/>
<path id="SVGCleanerId_0" style="fill:#FAC149;" d="M427.612,243.966c-3.717-2.146-4.991-6.9-2.845-10.617l13.63-23.608
	c2.146-3.719,6.899-4.992,10.617-2.845c3.717,2.146,4.991,6.9,2.845,10.617l-13.63,23.608
	C436.076,244.85,431.319,246.105,427.612,243.966z"/>
<path id="SVGCleanerId_1" style="fill:#FAC149;" d="M450.085,266.439c-2.146-3.717-0.873-8.471,2.845-10.617l23.608-13.63
	c3.717-2.145,8.471-0.873,10.617,2.845c2.146,3.717,0.873,8.47-2.845,10.617l-23.608,13.63
	C457.001,271.419,452.241,270.173,450.085,266.439z"/>
<path id="SVGCleanerId_2" style="fill:#FAC149;" d="M493.41,304.65h-26.944c-4.292,0-7.772-3.479-7.772-7.772
	s3.48-7.772,7.772-7.772h26.944c4.292,0,7.772,3.479,7.772,7.772S497.703,304.65,493.41,304.65z"/>
<g>
	<path id="SVGCleanerId_0_1_" style="fill:#FAC149;" d="M427.612,243.966c-3.717-2.146-4.991-6.9-2.845-10.617l13.63-23.608
		c2.146-3.719,6.899-4.992,10.617-2.845c3.717,2.146,4.991,6.9,2.845,10.617l-13.63,23.608
		C436.076,244.85,431.319,246.105,427.612,243.966z"/>
</g>
<g>
	<path id="SVGCleanerId_1_1_" style="fill:#FAC149;" d="M450.085,266.439c-2.146-3.717-0.873-8.471,2.845-10.617l23.608-13.63
		c3.717-2.145,8.471-0.873,10.617,2.845c2.146,3.717,0.873,8.47-2.845,10.617l-23.608,13.63
		C457.001,271.419,452.241,270.173,450.085,266.439z"/>
</g>
<g>
	<path id="SVGCleanerId_2_1_" style="fill:#FAC149;" d="M493.41,304.65h-26.944c-4.292,0-7.772-3.479-7.772-7.772
		s3.48-7.772,7.772-7.772h26.944c4.292,0,7.772,3.479,7.772,7.772S497.703,304.65,493.41,304.65z"/>
</g>
<path style="fill:#FAC149;" d="M182.912,287.551H25.359c-7.558,0-14.082,5.807-14.415,13.357
	c-0.353,8.014,6.039,14.623,13.976,14.623h144.112C172.663,305.662,177.336,296.292,182.912,287.551z"/>
<path style="fill:#F8A748;" d="M220.68,483.411H25.519c-7.726,0-13.99,6.264-13.99,13.99l0,0c0,7.726,6.263,13.99,13.99,13.99
	h266.913c1.123,0,2.209-0.147,3.256-0.396C267.783,508.953,242.04,499.013,220.68,483.411z"/>
<path style="fill:#FAC149;" d="M191.319,455.431h-166.2c-7.726,0-13.99,6.264-13.99,13.99l0,0c0,7.726,6.263,13.99,13.99,13.99
	H220.28C209.388,475.457,199.633,466.036,191.319,455.431z"/>
<path style="fill:#F8A748;" d="M173.93,427.451H25.403c-7.558,0-14.082,5.807-14.415,13.357c-0.353,8.014,6.04,14.623,13.976,14.623
	h166.2C184.419,446.828,178.626,437.446,173.93,427.451z"/>
<path style="fill:#FAC149;" d="M164.042,399.471H24.872c-7.727,0-13.99,6.264-13.99,13.99l0,0c0,7.726,6.263,13.99,13.99,13.99
	h148.966C169.666,418.574,166.363,409.212,164.042,399.471z"/>
<path style="fill:#F8A748;" d="M160.155,371.491H25.258c-7.558,0-14.082,5.807-14.415,13.357
	c-0.353,8.014,6.04,14.623,13.976,14.623H163.99C161.838,390.439,160.532,381.083,160.155,371.491z"/>
<path style="fill:#FAC149;" d="M160.018,365.698c0-7.541,0.576-14.95,1.687-22.186H25.246c-7.558,0-14.082,5.807-14.415,13.357
	c-0.353,8.014,6.04,14.623,13.976,14.623h135.336C160.067,369.568,160.018,367.639,160.018,365.698z"/>
<g>
	<path style="fill:#F8A748;" d="M168.958,315.531H24.846c-7.727,0-13.99,6.264-13.99,13.99l0,0c0,7.726,6.263,13.99,13.99,13.99
		h136.897C163.226,333.841,165.665,324.482,168.958,315.531z"/>
	<path style="fill:#F8A748;" d="M55.871,300.908c0.333-7.55,6.857-13.357,14.415-13.357H25.359c-7.558,0-14.082,5.807-14.415,13.357
		c-0.353,8.014,6.039,14.623,13.976,14.623h44.927C61.91,315.531,55.517,308.923,55.871,300.908z"/>
</g>
<path style="fill:#F38D1A;" d="M56.455,497.401L56.455,497.401c0-7.727,6.264-13.99,13.99-13.99H25.519
	c-7.726,0-13.99,6.263-13.99,13.99l0,0c0,7.727,6.263,13.99,13.99,13.99h44.927C62.719,511.391,56.455,505.128,56.455,497.401z"/>
<path style="fill:#F8A748;" d="M56.055,469.421L56.055,469.421c0-7.727,6.264-13.99,13.99-13.99H25.119
	c-7.727,0-13.99,6.263-13.99,13.99l0,0c0,7.727,6.263,13.99,13.99,13.99h44.927C62.319,483.411,56.055,477.148,56.055,469.421z"/>
<path style="fill:#F38D1A;" d="M55.914,440.809c0.333-7.551,6.857-13.357,14.415-13.357H25.403c-7.558,0-14.082,5.807-14.415,13.357
	c-0.353,8.014,6.04,14.623,13.976,14.623H69.89C61.954,455.431,55.561,448.823,55.914,440.809z"/>
<path style="fill:#F8A748;" d="M55.809,413.461c0-7.727,6.263-13.99,13.99-13.99H24.872c-7.727,0-13.99,6.263-13.99,13.99
	s6.263,13.99,13.99,13.99h44.926C62.072,427.451,55.809,421.188,55.809,413.461z"/>
<path style="fill:#F38D1A;" d="M55.77,384.849c0.333-7.551,6.857-13.357,14.415-13.357H25.258c-7.558,0-14.082,5.807-14.415,13.357
	c-0.353,8.014,6.04,14.623,13.976,14.623h44.926C61.81,399.471,55.417,392.863,55.77,384.849z"/>
<path style="fill:#F8A748;" d="M55.758,356.869c0.333-7.55,6.857-13.357,14.415-13.357H25.246c-7.558,0-14.082,5.807-14.415,13.357
	c-0.353,8.014,6.04,14.623,13.976,14.623h44.926C61.798,371.491,55.405,364.883,55.758,356.869z"/>
<path style="fill:#F38D1A;" d="M55.783,329.521L55.783,329.521c0-7.726,6.264-13.99,13.99-13.99H24.846
	c-7.727,0-13.99,6.264-13.99,13.99l0,0c0,7.726,6.263,13.99,13.99,13.99h44.927C62.046,343.511,55.783,337.248,55.783,329.521z"/>
<path style="fill:#F8A748;" d="M371.259,492.301c-70.315,40.596-160.549,16.418-201.145-53.897
	c-40.597-70.315-16.419-160.549,53.896-201.145c70.316-40.597,160.549-16.419,201.146,53.897
	C465.753,361.471,441.575,451.705,371.259,492.301z"/>
<path style="fill:#F38D1A;" d="M218.835,410.275c-35.787-61.986-21.229-139.443,30.889-184.736
	c-8.773,3.022-17.385,6.911-25.714,11.72c-70.315,40.596-94.493,130.83-53.896,201.145c46.195,80.013,154.278,98.216,224.153,37.488
	C328.982,498.382,254.623,472.261,218.835,410.275z"/>
<path style="fill:#FAC149;" d="M297.635,245.81c-65.6,0-118.97,53.37-118.97,118.97s53.369,118.97,118.97,118.97
	c65.6,0,118.97-53.37,118.97-118.97S363.235,245.81,297.635,245.81z"/>
<path style="fill:#F8A748;" d="M218.835,410.275c-22.52-39.006-25.098-84.137-10.931-123.526
	c-18.202,20.904-29.239,48.202-29.239,78.031c0,65.6,53.369,118.971,118.97,118.971c7.824,0,15.472-0.768,22.878-2.216
	C279.253,474.145,241.386,449.334,218.835,410.275z"/>
<path style="fill:#FCD597;" d="M309.315,358.538h-6.065v-43.524h21.244c4.292,0,7.772-3.479,7.772-7.772s-3.48-7.772-7.772-7.772
	H303.25v-9.845c0-4.293-3.48-7.772-7.772-7.772s-7.772,3.479-7.772,7.772v9.845h-5.116c-20.567,0-37.3,16.733-37.3,37.314
	c0,20.567,16.733,37.3,37.299,37.3h5.116v43.524h-21.244c-4.292,0-7.772,3.479-7.772,7.772s3.48,7.772,7.772,7.772h21.244v6.736
	c0,4.293,3.48,7.772,7.772,7.772s7.772-3.479,7.772-7.772v-6.736h6.065c20.571,0,37.306-16.736,37.306-37.307
	S329.886,358.538,309.315,358.538z M282.589,358.538c-11.995,0-21.755-9.76-21.755-21.769c0-11.995,9.759-21.755,21.755-21.755
	h5.116v43.524L282.589,358.538L282.589,358.538z M309.315,417.607h-6.065v-43.524h6.065c11.999,0,21.762,9.763,21.762,21.762
	S321.315,417.607,309.315,417.607z"/>
<g>
</g>
<g>
</g>
<g>
</g>
<g>
</g>
<g>
</g>
<g>
</g>
<g>
</g>
<g>
</g>
<g>
</g>
<g>
</g>
<g>
</g>
<g>
</g>
<g>
</g>
<g>
</g>
<g>
</g>
</svg>
