<?xml version="1.0" encoding="UTF-8"?>
<!DOCTYPE svg PUBLIC "-//W3C//DTD SVG 1.1//EN" "http://www.w3.org/Graphics/SVG/1.1/DTD/svg11.dtd">
<!-- Creator: CorelDRAW 2018 (64-Bit Evaluation Version) -->
<svg xmlns="http://www.w3.org/2000/svg" xml:space="preserve" width="0.557858in" height="0.583709in" version="1.1" style="shape-rendering:geometricPrecision; text-rendering:geometricPrecision; image-rendering:optimizeQuality; fill-rule:evenodd; clip-rule:evenodd"
viewBox="0 0 2.93 3.06"
 xmlns:xlink="http://www.w3.org/1999/xlink">
 <defs>
  <style type="text/css">
   <![CDATA[
    .fil0 {fill:url(#id0)}
    .fil2 {fill:url(#id1)}
    .fil1 {fill:url(#id2)}
    .fil3 {fill:url(#id3)}
   ]]>
  </style>
  <linearGradient id="id0" gradientUnits="userSpaceOnUse" x1="1.92" y1="2.16" x2="2.25" y2="2.16">
   <stop offset="0" style="stop-opacity:1; stop-color:#7200FF"/>
   <stop offset="0.419608" style="stop-opacity:1; stop-color:#8E00FF"/>
   <stop offset="1" style="stop-opacity:1; stop-color:#AA00FF"/>
  </linearGradient>
  <linearGradient id="id1" gradientUnits="userSpaceOnUse" xlink:href="#id0" x1="1.76" y1="1.1" x2="2.07" y2="1.1">
  </linearGradient>
  <linearGradient id="id2" gradientUnits="userSpaceOnUse" xlink:href="#id0" x1="0.68" y1="2.06" x2="1.05" y2="2.06">
  </linearGradient>
  <linearGradient id="id3" gradientUnits="userSpaceOnUse" xlink:href="#id0" x1="0.52" y1="1.53" x2="2.56" y2="1.53">
  </linearGradient>
 </defs>
 <g id="Layer_x0020_1">
  <metadata id="CorelCorpID_0Corel-Layer"/>
  <path class="fil0" d="M2.28 2.02c0.02,-0.01 0.04,-0.03 0.03,-0.05 -0.01,-0.02 -0.03,-0.04 -0.05,-0.03 -0.07,0.02 -0.14,0.06 -0.18,0.12 -0.06,-0.03 -0.13,-0.03 -0.2,-0.02 -0.02,0.01 -0.04,0.03 -0.03,0.05 0.01,0.02 0.03,0.04 0.05,0.03 0.06,-0.01 0.13,-0 0.18,0.03 0.05,0.03 0.09,0.09 0.11,0.15 0,0.02 0.01,0.03 0.01,0.05 0,0.02 0.02,0.04 0.04,0.04 0,0 0,0 0,-0 0.02,-0 0.04,-0.02 0.04,-0.05 -0,-0.02 -0,-0.04 -0.01,-0.06 -0.02,-0.07 -0.06,-0.13 -0.11,-0.18 0.03,-0.04 0.08,-0.07 0.13,-0.08l0 0z"/>
  <path class="fil1" d="M0.92 2.08c0,-0.05 0.01,-0.1 0.04,-0.15 0.03,-0.06 0.08,-0.12 0.14,-0.15 0.02,-0.01 0.03,-0.04 0.02,-0.06 -0.01,-0.02 -0.04,-0.03 -0.06,-0.02 -0.08,0.04 -0.14,0.11 -0.18,0.19 -0.03,0.05 -0.04,0.11 -0.05,0.16 -0.1,0.04 -0.19,0.12 -0.23,0.22 -0.01,0.02 -0,0.05 0.02,0.06 0.01,0 0.01,0 0.02,0 0.02,0 0.03,-0.01 0.04,-0.03 0.03,-0.07 0.09,-0.13 0.15,-0.16 0.01,0.1 0.06,0.19 0.13,0.26 0.01,0.01 0.02,0.01 0.03,0.01 0.01,0 0.02,-0 0.03,-0.01 0.02,-0.02 0.02,-0.05 -0,-0.06 -0.07,-0.07 -0.11,-0.17 -0.11,-0.26 0,-0 0,-0 0,-0l0 0z"/>
  <path class="fil2" d="M1.74 0.8c-0.02,-0.01 -0.05,0.01 -0.06,0.03 -0.01,0.02 0.01,0.05 0.03,0.06 0.1,0.03 0.18,0.09 0.22,0.18 0,0 0,0 0,0 0.02,0.05 0.04,0.1 0.04,0.15 0,0.07 -0.02,0.14 -0.05,0.2 -0.01,0.02 -0.01,0.05 0.01,0.06 0.01,0 0.02,0.01 0.02,0.01 0.01,0 0.03,-0.01 0.04,-0.02 0.05,-0.08 0.07,-0.16 0.07,-0.25 -0,-0.06 -0.01,-0.11 -0.04,-0.16 0.07,-0.09 0.1,-0.2 0.1,-0.31 -0,-0.02 -0.02,-0.04 -0.05,-0.04 -0.02,0 -0.04,0.02 -0.04,0.05 0,0.08 -0.02,0.15 -0.06,0.21 -0.06,-0.08 -0.14,-0.14 -0.24,-0.17l0 0z"/>
  <path class="fil3" d="M2.92 1.84c-0.01,-0.1 -0.07,-0.19 -0.15,-0.24 0.08,-0.08 0.13,-0.2 0.13,-0.31 0,-0.11 -0.04,-0.22 -0.12,-0.3 -0.06,-0.07 -0.15,-0.12 -0.24,-0.14 0.01,-0.03 0.01,-0.07 0.01,-0.11 0,-0.25 -0.2,-0.45 -0.45,-0.45 -0.01,0 -0.01,0 -0.02,0 -0,0 -0,0 -0,0 -0.01,0 -0.01,0 -0.02,0 -0,0 -0,0 -0,0 -0.01,-0.17 -0.15,-0.3 -0.32,-0.3 -0.12,0 -0.22,0.06 -0.28,0.16 -0.06,-0.09 -0.16,-0.16 -0.28,-0.16 -0.17,0 -0.31,0.13 -0.32,0.3 -0.09,-0.01 -0.18,0.01 -0.26,0.05 -0.02,0.01 -0.03,0.04 -0.02,0.06 0.01,0.02 0.04,0.03 0.06,0.02 0.07,-0.04 0.16,-0.05 0.25,-0.03 0,0 0,0 0,0 0.04,0.01 0.09,0.03 0.12,0.05 0.01,0.01 0.02,0.01 0.03,0.01 0.01,0 0.03,-0.01 0.04,-0.02 0.01,-0.02 0.01,-0.05 -0.01,-0.06 -0.04,-0.03 -0.08,-0.04 -0.12,-0.06 0.01,-0.13 0.11,-0.23 0.24,-0.23 0.12,0 0.22,0.09 0.23,0.2 -0,0.01 -0,0.69 -0,0.69 -0.13,0.06 -0.29,0.03 -0.4,-0.08 -0.05,-0.05 -0.08,-0.11 -0.1,-0.19 -0,-0.02 -0.03,-0.04 -0.05,-0.04 -0.02,0 -0.04,0.03 -0.04,0.05 0.02,0.09 0.06,0.17 0.12,0.23 0.09,0.09 0.2,0.13 0.32,0.13 0.05,0 0.1,-0.01 0.14,-0.02 0,0 0,1.65 0,1.66 -0.02,0.13 -0.13,0.24 -0.27,0.24 -0.12,0 -0.23,-0.08 -0.26,-0.19 0.05,-0.03 0.09,-0.08 0.13,-0.13 0.01,-0.02 0.01,-0.05 -0.01,-0.06 -0.02,-0.01 -0.05,-0.01 -0.06,0.01 -0.03,0.04 -0.07,0.08 -0.11,0.11 0,0 0,0 0,0 -0.01,0 -0.01,0 -0.02,0.01 -0.06,0.03 -0.12,0.05 -0.19,0.05 -0.21,0 -0.38,-0.17 -0.38,-0.38 0,-0.07 0.02,-0.13 0.05,-0.19 0,0 0,0 0,0 0.02,-0.04 0.05,-0.07 0.09,-0.1 0.02,-0.02 0.02,-0.04 0.01,-0.06 -0.02,-0.02 -0.04,-0.02 -0.06,-0.01 -0.03,0.02 -0.05,0.05 -0.07,0.07 -0.11,-0.03 -0.18,-0.14 -0.17,-0.25 0.01,-0.09 0.07,-0.17 0.16,-0.2 0,-0 0,-0 0,-0 0.03,-0.01 0.07,-0.01 0.1,-0.01 0.02,0 0.03,0.01 0.05,0.01 0.02,0.01 0.05,-0.01 0.06,-0.03 0.01,-0.02 -0.01,-0.05 -0.03,-0.06 -0.02,-0.01 -0.04,-0.01 -0.06,-0.01 -0.04,-0 -0.08,-0 -0.12,0.01 -0.08,-0.07 -0.13,-0.17 -0.13,-0.28 0,-0.09 0.03,-0.18 0.09,-0.24 0.05,-0.06 0.12,-0.1 0.2,-0.11 0.04,0.09 0.11,0.16 0.19,0.2 0.01,0 0.01,0.01 0.02,0.01 0.02,0 0.03,-0.01 0.04,-0.02 0.01,-0.02 0,-0.05 -0.02,-0.06 -0.07,-0.04 -0.13,-0.1 -0.16,-0.18 -0,-0 -0.03,-0.09 -0.03,-0.14 0,-0.07 0.02,-0.14 0.06,-0.2 0.01,-0.02 0.01,-0.05 -0.01,-0.06 -0.02,-0.01 -0.05,-0.01 -0.06,0.01 -0.05,0.07 -0.08,0.16 -0.08,0.25 0,0.04 0,0.07 0.01,0.11 -0.09,0.02 -0.17,0.07 -0.24,0.14 -0.08,0.08 -0.12,0.19 -0.12,0.3 0,0.12 0.05,0.23 0.13,0.31 -0.08,0.05 -0.14,0.14 -0.15,0.24 -0.02,0.15 0.07,0.29 0.21,0.34 -0.03,0.06 -0.05,0.13 -0.05,0.21 0,0.26 0.21,0.47 0.47,0.47 0.06,0 0.12,-0.01 0.18,-0.04 0.05,0.14 0.19,0.24 0.34,0.24 0.14,0 0.25,-0.07 0.32,-0.19 0.06,0.11 0.18,0.19 0.32,0.19 0.15,0 0.29,-0.1 0.34,-0.24 0.06,0.02 0.12,0.04 0.18,0.04 0.06,0 0.12,-0.01 0.18,-0.04 0.02,-0.01 0.03,-0.04 0.02,-0.06 -0.01,-0.02 -0.04,-0.03 -0.06,-0.02 -0.05,0.02 -0.1,0.03 -0.15,0.03 -0.07,0 -0.13,-0.02 -0.19,-0.05 -0,-0 -0,-0 -0,-0 -0.05,-0.03 -0.09,-0.07 -0.13,-0.12 -0.01,-0.02 -0.04,-0.03 -0.06,-0.01 -0.02,0.01 -0.03,0.04 -0.01,0.06 0.03,0.05 0.08,0.09 0.13,0.13 -0.04,0.11 -0.14,0.19 -0.26,0.19 -0.14,0 -0.25,-0.1 -0.27,-0.24 0,-0.01 0,-2.43 0,-2.44 0.02,-0.11 0.12,-0.2 0.23,-0.2 0.13,0 0.23,0.1 0.24,0.23 -0.04,0.01 -0.08,0.03 -0.12,0.06 -0.02,0.01 -0.03,0.04 -0.01,0.06 0.01,0.01 0.02,0.02 0.04,0.02 0.01,0 0.02,-0 0.03,-0.01 0.04,-0.03 0.08,-0.04 0.13,-0.05 0.03,-0.01 0.07,-0.01 0.07,-0.01 0.2,0 0.36,0.16 0.36,0.36 0,0.04 -0.01,0.09 -0.02,0.13 -0,0 -0,0 -0,0 -0.03,0.08 -0.09,0.15 -0.16,0.19 -0.02,0.01 -0.03,0.04 -0.02,0.06 0.01,0.01 0.02,0.02 0.04,0.02 0.01,0 0.01,-0 0.02,-0.01 0.08,-0.05 0.15,-0.12 0.19,-0.2 0.08,0.01 0.15,0.05 0.2,0.11 0.06,0.07 0.09,0.15 0.09,0.24 0,0.11 -0.05,0.21 -0.13,0.28 -0.04,-0.01 -0.08,-0.01 -0.12,-0.01 -0.02,0 -0.04,0.01 -0.06,0.01 -0.02,0.01 -0.04,0.03 -0.03,0.06 0.01,0.02 0.03,0.04 0.06,0.03 0.01,-0 0.03,-0.01 0.05,-0.01 0.03,-0 0.07,-0 0.1,0.01 0,0 0,0 0,0 0.09,0.03 0.15,0.11 0.16,0.2 0.01,0.11 -0.06,0.22 -0.17,0.25 -0.02,-0.03 -0.04,-0.05 -0.07,-0.07 -0.02,-0.02 -0.05,-0.01 -0.06,0.01 -0.02,0.02 -0.01,0.05 0.01,0.06 0.03,0.02 0.05,0.05 0.07,0.08 0,0 0,0 0,0.01 0,0 0,0.01 0,0.01 0.03,0.06 0.05,0.12 0.05,0.19 0,0.09 -0.03,0.18 -0.09,0.25 -0.02,0.02 -0.01,0.05 0,0.06 0.02,0.02 0.05,0.01 0.06,-0 0.07,-0.08 0.12,-0.19 0.12,-0.31 0,-0.07 -0.02,-0.14 -0.05,-0.21 0.14,-0.05 0.22,-0.19 0.21,-0.34l0 0z"/>
 </g>
</svg>
