<?xml version="1.0" encoding="UTF-8"?>
<!DOCTYPE svg PUBLIC "-//W3C//DTD SVG 1.1//EN" "http://www.w3.org/Graphics/SVG/1.1/DTD/svg11.dtd">
<!-- Creator: CorelDRAW 2018 (64-Bit Evaluation Version) -->
<svg xmlns="http://www.w3.org/2000/svg" xml:space="preserve" width="0.596413in" height="0.419091in" version="1.1" style="shape-rendering:geometricPrecision; text-rendering:geometricPrecision; image-rendering:optimizeQuality; fill-rule:evenodd; clip-rule:evenodd"
viewBox="0 0 4.09 2.88"
 xmlns:xlink="http://www.w3.org/1999/xlink">
 <defs>
  <style type="text/css">
   <![CDATA[
    .fil0 {fill:url(#id0);fill-rule:nonzero}
   ]]>
  </style>
  <linearGradient id="id0" gradientUnits="objectBoundingBox" x1="17.7892%" y1="49.9993%" x2="87.3509%" y2="49.9991%">
   <stop offset="0" style="stop-opacity:1; stop-color:#7200FF"/>
   <stop offset="0.419608" style="stop-opacity:1; stop-color:#8E00FF"/>
   <stop offset="1" style="stop-opacity:1; stop-color:#AA00FF"/>
  </linearGradient>
 </defs>
 <g id="Layer_x0020_1">
  <metadata id="CorelCorpID_0Corel-Layer"/>
  <path class="fil0" d="M1.94 1.81l0.46 0.06c-0.05,0.31 -0.18,0.56 -0.38,0.74 -0.21,0.18 -0.46,0.27 -0.76,0.27 -0.38,0 -0.68,-0.12 -0.91,-0.37 -0.23,-0.25 -0.34,-0.6 -0.34,-1.06 0,-0.3 0.05,-0.56 0.15,-0.78 0.1,-0.22 0.25,-0.39 0.45,-0.5 0.2,-0.11 0.42,-0.17 0.66,-0.17 0.3,0 0.54,0.08 0.73,0.23 0.19,0.15 0.31,0.37 0.37,0.65l-0.45 0.07c-0.04,-0.19 -0.12,-0.32 -0.23,-0.42 -0.11,-0.09 -0.24,-0.14 -0.4,-0.14 -0.24,0 -0.43,0.08 -0.58,0.25 -0.15,0.17 -0.22,0.44 -0.22,0.8 0,0.37 0.07,0.64 0.21,0.81 0.14,0.17 0.33,0.25 0.56,0.25 0.18,0 0.34,-0.06 0.46,-0.17 0.12,-0.11 0.2,-0.28 0.23,-0.52z"/>
  <polygon id="1" class="fil0" points="2.72,1.8 2.72,1.49 2.41,1.49 2.41,1.36 2.72,1.36 2.72,1.05 2.85,1.05 2.85,1.36 3.16,1.36 3.16,1.49 2.85,1.49 2.85,1.8 "/>
  <polygon id="2" class="fil0" points="3.65,1.8 3.65,1.49 3.34,1.49 3.34,1.36 3.65,1.36 3.65,1.05 3.78,1.05 3.78,1.36 4.09,1.36 4.09,1.49 3.78,1.49 3.78,1.8 "/>
 </g>
</svg>
