<?xml version="1.0" encoding="UTF-8"?>
<!DOCTYPE svg PUBLIC "-//W3C//DTD SVG 1.1//EN" "http://www.w3.org/Graphics/SVG/1.1/DTD/svg11.dtd">
<!-- Creator: CorelDRAW 2018 (64-Bit Evaluation Version) -->
<svg xmlns="http://www.w3.org/2000/svg" xml:space="preserve" width="0.430504in" height="0.583709in" version="1.1" style="shape-rendering:geometricPrecision; text-rendering:geometricPrecision; image-rendering:optimizeQuality; fill-rule:evenodd; clip-rule:evenodd"
viewBox="0 0 2.01 2.73"
 xmlns:xlink="http://www.w3.org/1999/xlink">
 <defs>
  <style type="text/css">
   <![CDATA[
    .fil1 {fill:url(#id0)}
    .fil6 {fill:url(#id1)}
    .fil4 {fill:url(#id2)}
    .fil2 {fill:url(#id3)}
    .fil7 {fill:url(#id4)}
    .fil0 {fill:url(#id5)}
    .fil3 {fill:url(#id6)}
    .fil5 {fill:url(#id7)}
   ]]>
  </style>
  <linearGradient id="id0" gradientUnits="userSpaceOnUse" x1="0.62" y1="1.92" x2="1.35" y2="1.92">
   <stop offset="0" style="stop-opacity:1; stop-color:#7200FF"/>
   <stop offset="0.419608" style="stop-opacity:1; stop-color:#8E00FF"/>
   <stop offset="1" style="stop-opacity:1; stop-color:#AA00FF"/>
  </linearGradient>
  <linearGradient id="id1" gradientUnits="userSpaceOnUse" xlink:href="#id0" x1="0.77" y1="0.75" x2="1.26" y2="0.75">
  </linearGradient>
  <linearGradient id="id2" gradientUnits="userSpaceOnUse" xlink:href="#id0" x1="0.46" y1="1.62" x2="1.41" y2="1.62">
  </linearGradient>
  <linearGradient id="id3" gradientUnits="userSpaceOnUse" xlink:href="#id0" x1="1.12" y1="1.07" x2="1.54" y2="1.07">
  </linearGradient>
  <linearGradient id="id4" gradientUnits="userSpaceOnUse" xlink:href="#id0" x1="0.66" y1="2.6" x2="1.8" y2="2.6">
  </linearGradient>
  <linearGradient id="id5" gradientUnits="userSpaceOnUse" xlink:href="#id0" x1="0.68" y1="2.22" x2="1.32" y2="2.22">
  </linearGradient>
  <linearGradient id="id6" gradientUnits="userSpaceOnUse" xlink:href="#id0" x1="0.34" y1="2.45" x2="1.65" y2="2.45">
  </linearGradient>
  <linearGradient id="id7" gradientUnits="userSpaceOnUse" xlink:href="#id0" x1="1.65" y1="1.74" x2="1.95" y2="1.74">
  </linearGradient>
 </defs>
 <g id="Layer_x0020_1">
  <metadata id="CorelCorpID_0Corel-Layer"/>
  <path class="fil0" d="M0.65 2.11c0,0 -0.1,0.06 0.07,0.08 0.22,0.02 0.33,0.02 0.56,-0.02 0,0 0.06,0.04 0.15,0.07 -0.53,0.23 -1.21,-0.01 -0.79,-0.13z"/>
  <path class="fil1" d="M0.58 1.81c0,0 -0.12,0.09 0.06,0.1 0.23,0.02 0.41,0.03 0.73,-0.03 0,0 0.04,0.04 0.11,0.07 -0.65,0.19 -1.36,0.01 -0.9,-0.14z"/>
  <path class="fil2" d="M1.13 1.3c0.13,0.15 -0.03,0.29 -0.03,0.29 0,0 0.33,-0.17 0.18,-0.39 -0.14,-0.2 -0.25,-0.3 0.34,-0.65 0,0 -0.93,0.23 -0.49,0.75z"/>
  <path class="fil3" d="M1.84 2.33c0,0 0.08,0.06 -0.08,0.11 -0.31,0.09 -1.28,0.12 -1.55,0 -0.1,-0.04 0.09,-0.1 0.14,-0.11 0.06,-0.01 0.09,-0.01 0.09,-0.01 -0.11,-0.08 -0.7,0.15 -0.3,0.21 1.09,0.18 1.98,-0.08 1.7,-0.21z"/>
  <path class="fil4" d="M0.7 1.5c0,0 -0.5,0.12 -0.18,0.16 0.14,0.02 0.4,0.01 0.66,-0.01 0.21,-0.02 0.41,-0.05 0.41,-0.05 0,0 -0.07,0.03 -0.12,0.07 -0.5,0.13 -1.47,0.07 -1.19,-0.06 0.24,-0.11 0.43,-0.1 0.43,-0.1z"/>
  <path class="fil5" d="M1.59 2c0.51,-0.27 0.27,-0.52 0.11,-0.49 -0.04,0.01 -0.06,0.02 -0.06,0.02 0,0 0.02,-0.02 0.04,-0.03 0.33,-0.11 0.58,0.34 -0.11,0.52 0,0 0.01,-0.01 0.01,-0.01z"/>
  <path class="fil6" d="M1.28 0c0,0 0.28,0.28 -0.27,0.72 -0.44,0.35 -0.1,0.55 -0,0.78 -0.26,-0.23 -0.45,-0.44 -0.32,-0.63 0.19,-0.28 0.7,-0.42 0.59,-0.87z"/>
  <path class="fil7" d="M0.75 2.72c0.49,0.03 1.24,-0.02 1.26,-0.25 0,0 -0.03,0.09 -0.41,0.16 -0.42,0.08 -0.94,0.07 -1.24,0.02 0,0 0.06,0.05 0.39,0.07z"/>
 </g>
</svg>
