<?xml version="1.0" encoding="UTF-8"?>
<!DOCTYPE svg PUBLIC "-//W3C//DTD SVG 1.1//EN" "http://www.w3.org/Graphics/SVG/1.1/DTD/svg11.dtd">
<!-- Creator: CorelDRAW 2018 (64-Bit Evaluation Version) -->
<svg xmlns="http://www.w3.org/2000/svg" xml:space="preserve" width="0.459386in" height="0.517638in" version="1.1" style="shape-rendering:geometricPrecision; text-rendering:geometricPrecision; image-rendering:optimizeQuality; fill-rule:evenodd; clip-rule:evenodd"
viewBox="0 0 2.07 2.34"
 xmlns:xlink="http://www.w3.org/1999/xlink">
 <defs>
  <style type="text/css">
   <![CDATA[
    .fil0 {fill:url(#id0)}
   ]]>
  </style>
  <linearGradient id="id0" gradientUnits="userSpaceOnUse" x1="0.37" y1="1.17" x2="1.81" y2="1.17">
   <stop offset="0" style="stop-opacity:1; stop-color:#7200FF"/>
   <stop offset="0.419608" style="stop-opacity:1; stop-color:#8E00FF"/>
   <stop offset="1" style="stop-opacity:1; stop-color:#AA00FF"/>
  </linearGradient>
 </defs>
 <g id="Layer_x0020_1">
  <metadata id="CorelCorpID_0Corel-Layer"/>
  <path class="fil0" d="M1.04 2.34c-0.03,0 -0.06,-0.01 -0.09,-0.02l-0.29 -0.17c-0.04,-0.02 -0.02,-0.03 -0.01,-0.04 0.06,-0.02 0.07,-0.02 0.13,-0.06 0.01,-0 0.02,-0 0.02,0l0.22 0.13c0.01,0 0.02,0 0.03,0l0.86 -0.5c0.01,-0 0.01,-0.01 0.01,-0.02l0 -0.99c0,-0.01 -0,-0.02 -0.01,-0.02l-0.86 -0.49c-0.01,-0 -0.02,-0 -0.03,0l-0.86 0.49c-0.01,0 -0.01,0.02 -0.01,0.02l0 0.99c0,0.01 0,0.02 0.01,0.02l0.23 0.14c0.13,0.06 0.21,-0.01 0.21,-0.09l0 -0.98c0,-0.01 0.01,-0.03 0.03,-0.03l0.11 0c0.01,0 0.03,0.01 0.03,0.03l0 0.98c0,0.17 -0.09,0.27 -0.25,0.27 -0.05,0 -0.09,0 -0.2,-0.05l-0.23 -0.13c-0.06,-0.03 -0.09,-0.09 -0.09,-0.16l0 -0.99c0,-0.06 0.03,-0.12 0.09,-0.16l0.86 -0.5c0.05,-0.03 0.13,-0.03 0.18,0l0.86 0.5c0.06,0.03 0.09,0.09 0.09,0.16l0 0.99c0,0.06 -0.03,0.12 -0.09,0.16l-0.86 0.5c-0.03,0.01 -0.06,0.02 -0.09,0.02l0 0zm0.26 -0.68c-0.38,0 -0.45,-0.17 -0.45,-0.32 0,-0.01 0.01,-0.03 0.03,-0.03l0.11 0c0.01,0 0.02,0.01 0.02,0.02 0.02,0.11 0.07,0.17 0.29,0.17 0.18,0 0.26,-0.04 0.26,-0.14 0,-0.06 -0.02,-0.1 -0.3,-0.12 -0.23,-0.02 -0.38,-0.08 -0.38,-0.26 0,-0.17 0.15,-0.28 0.39,-0.28 0.27,0 0.41,0.09 0.43,0.3 0,0.01 -0,0.01 -0.01,0.02 -0,0 -0.01,0.01 -0.02,0.01l-0.11 0c-0.01,0 -0.02,-0.01 -0.02,-0.02 -0.03,-0.12 -0.09,-0.16 -0.27,-0.16 -0.2,0 -0.22,0.07 -0.22,0.12 0,0.06 0.03,0.08 0.29,0.12 0.26,0.03 0.39,0.08 0.39,0.27 -0,0.19 -0.16,0.3 -0.43,0.3l0 0z"/>
 </g>
</svg>
