<?xml version="1.0" encoding="UTF-8"?>
<!DOCTYPE svg PUBLIC "-//W3C//DTD SVG 1.1//EN" "http://www.w3.org/Graphics/SVG/1.1/DTD/svg11.dtd">
<!-- Creator: CorelDRAW 2018 (64-Bit Evaluation Version) -->
<svg xmlns="http://www.w3.org/2000/svg" xml:space="preserve" width="0.500142in" height="0.500142in" version="1.1" style="shape-rendering:geometricPrecision; text-rendering:geometricPrecision; image-rendering:optimizeQuality; fill-rule:evenodd; clip-rule:evenodd"
viewBox="0 0 2.57 2.57"
 xmlns:xlink="http://www.w3.org/1999/xlink">
 <defs>
  <style type="text/css">
   <![CDATA[
    .fil1 {fill:url(#id0)}
    .fil2 {fill:url(#id1)}
    .fil0 {fill:url(#id2)}
   ]]>
  </style>
  <linearGradient id="id0" gradientUnits="userSpaceOnUse" x1="1.06" y1="0.45" x2="1.17" y2="0.45">
   <stop offset="0" style="stop-opacity:1; stop-color:#7200FF"/>
   <stop offset="0.419608" style="stop-opacity:1; stop-color:#8E00FF"/>
   <stop offset="1" style="stop-opacity:1; stop-color:#AA00FF"/>
  </linearGradient>
  <linearGradient id="id1" gradientUnits="userSpaceOnUse" xlink:href="#id0" x1="1.41" y1="2.12" x2="1.52" y2="2.12">
  </linearGradient>
  <linearGradient id="id2" gradientUnits="userSpaceOnUse" xlink:href="#id0" x1="0.46" y1="1.29" x2="2.25" y2="1.29">
  </linearGradient>
 </defs>
 <g id="Layer_x0020_1">
  <metadata id="CorelCorpID_0Corel-Layer"/>
  <path class="fil0" d="M2.2 0.73l-0.36 0 0 -0.36c0,-0.21 -0.17,-0.38 -0.38,-0.38l-0.35 0c-0.21,0 -0.38,0.17 -0.38,0.38l0 0.36 -0.36 0c-0.21,0 -0.38,0.17 -0.38,0.38l0 0.35c0,0.21 0.17,0.38 0.38,0.38l0.36 0 0 0.36c0,0.21 0.17,0.38 0.38,0.38l0.35 0c0.21,0 0.38,-0.17 0.38,-0.38l0 -0.36 0.36 0c0.21,0 0.38,-0.17 0.38,-0.38l0 -0.35c0,-0.21 -0.17,-0.38 -0.38,-0.38l0 0zm-1.82 0.96c-0.12,0 -0.23,-0.1 -0.23,-0.23l0 -0.35c0,-0.12 0.1,-0.23 0.23,-0.23l0.91 0c0.04,0 0.08,-0.03 0.08,-0.08 0,-0.04 -0.03,-0.08 -0.08,-0.08l-0.4 0 0 -0.36c0,-0.12 0.1,-0.23 0.23,-0.23l0.35 0c0.12,0 0.23,0.1 0.23,0.23l0 0.83 -0.88 0c-0.04,0 -0.08,0.03 -0.08,0.08l0 0.4 -0.36 0zm2.05 -0.23c0,0.12 -0.1,0.23 -0.23,0.23l-0.91 0c-0.04,0 -0.08,0.03 -0.08,0.08 0,0.04 0.03,0.08 0.08,0.08l0.4 0 0 0.36c0,0.12 -0.1,0.23 -0.23,0.23l-0.35 0c-0.12,0 -0.23,-0.1 -0.23,-0.23l0 -0.83 0.88 0c0.04,0 0.08,-0.03 0.08,-0.08l0 -0.4 0.36 0c0.12,0 0.23,0.1 0.23,0.23l0 0.35zm0 0z"/>
  <path class="fil1" d="M1.19 0.45c0,0.04 -0.03,0.08 -0.08,0.08 -0.04,0 -0.08,-0.03 -0.08,-0.08 0,-0.04 0.03,-0.08 0.08,-0.08 0.04,0 0.08,0.03 0.08,0.08zm0 0z"/>
  <path class="fil2" d="M1.54 2.12c0,0.04 -0.03,0.08 -0.08,0.08 -0.04,0 -0.08,-0.03 -0.08,-0.08 0,-0.04 0.03,-0.08 0.08,-0.08 0.04,0 0.08,0.03 0.08,0.08zm0 0z"/>
 </g>
</svg>
